<svg xmlns="http://www.w3.org/2000/svg" xmlns:xlink="http://www.w3.org/1999/xlink" width="1080" zoomAndPan="magnify" viewBox="0 0 810 809.999993" height="1080" preserveAspectRatio="xMidYMid meet" version="1.0"><defs><clipPath id="3684c6d8fc"><path d="M 337 159.917969 L 688 159.917969 L 688 407.117188 L 337 407.117188 Z M 337 159.917969 " clip-rule="nonzero"/></clipPath><clipPath id="3b3c348ebb"><path d="M 515.441406 190 L 662.128906 190 L 662.128906 227 L 515.441406 227 Z M 515.441406 190 " clip-rule="nonzero"/></clipPath><clipPath id="f8bc11d2c6"><path d="M 515.441406 207 L 662.128906 207 L 662.128906 242 L 515.441406 242 Z M 515.441406 207 " clip-rule="nonzero"/></clipPath><clipPath id="fee4b80539"><path d="M 515.441406 244 L 662.128906 244 L 662.128906 276 L 515.441406 276 Z M 515.441406 244 " clip-rule="nonzero"/></clipPath><clipPath id="644868691c"><path d="M 295 589 L 400 589 L 400 650.441406 L 295 650.441406 Z M 295 589 " clip-rule="nonzero"/></clipPath><clipPath id="bd65a88df9"><path d="M 121.921875 307.285156 L 473.207031 307.285156 L 473.207031 591 L 121.921875 591 Z M 121.921875 307.285156 " clip-rule="nonzero"/></clipPath><clipPath id="9a248bb10e"><path d="M 121.921875 307.285156 L 473.207031 307.285156 L 473.207031 591 L 121.921875 591 Z M 121.921875 307.285156 " clip-rule="nonzero"/></clipPath><clipPath id="110937477b"><path d="M 165 379 L 237 379 L 237 417 L 165 417 Z M 165 379 " clip-rule="nonzero"/></clipPath><clipPath id="d96ecd8656"><path d="M 266.179688 373.074219 L 169.503906 373.074219 C 167.097656 373.074219 165.160156 375.015625 165.160156 377.425781 L 165.160156 455.40625 C 165.160156 457.816406 167.097656 459.757812 169.503906 459.757812 L 266.179688 459.757812 C 268.585938 459.757812 270.523438 457.816406 270.523438 455.40625 L 270.523438 377.425781 C 270.523438 375.015625 268.585938 373.074219 266.179688 373.074219 Z M 266.179688 373.074219 " clip-rule="nonzero"/></clipPath><clipPath id="da1acc7a11"><path d="M 165 385 L 271 385 L 271 440 L 165 440 Z M 165 385 " clip-rule="nonzero"/></clipPath><clipPath id="5745d3eb90"><path d="M 266.179688 373.074219 L 169.503906 373.074219 C 167.097656 373.074219 165.160156 375.015625 165.160156 377.425781 L 165.160156 455.40625 C 165.160156 457.816406 167.097656 459.757812 169.503906 459.757812 L 266.179688 459.757812 C 268.585938 459.757812 270.523438 457.816406 270.523438 455.40625 L 270.523438 377.425781 C 270.523438 375.015625 268.585938 373.074219 266.179688 373.074219 Z M 266.179688 373.074219 " clip-rule="nonzero"/></clipPath><clipPath id="4022a56e1c"><path d="M 255 387 L 271 387 L 271 416 L 255 416 Z M 255 387 " clip-rule="nonzero"/></clipPath><clipPath id="d50f94e615"><path d="M 266.179688 373.074219 L 169.503906 373.074219 C 167.097656 373.074219 165.160156 375.015625 165.160156 377.425781 L 165.160156 455.40625 C 165.160156 457.816406 167.097656 459.757812 169.503906 459.757812 L 266.179688 459.757812 C 268.585938 459.757812 270.523438 457.816406 270.523438 455.40625 L 270.523438 377.425781 C 270.523438 375.015625 268.585938 373.074219 266.179688 373.074219 Z M 266.179688 373.074219 " clip-rule="nonzero"/></clipPath></defs><path fill="#f4f8fb" d="M 682.863281 160.648438 L 342.011719 160.648438 C 339.664062 160.648438 337.761719 162.554688 337.761719 164.898438 L 337.761719 402.207031 C 337.761719 404.554688 339.664062 406.457031 342.011719 406.457031 L 682.789062 406.457031 C 685.132812 406.457031 687.039062 404.554688 687.039062 402.207031 L 687.039062 164.824219 C 687.039062 162.480469 685.132812 160.648438 682.863281 160.648438 Z M 682.863281 160.648438 " fill-opacity="1" fill-rule="nonzero"/><g clip-path="url(#3684c6d8fc)"><path fill="#a5c6d3" d="M 682.863281 407.117188 L 342.011719 407.117188 C 339.296875 407.117188 337.101562 404.917969 337.101562 402.207031 L 337.101562 164.824219 C 337.101562 162.113281 339.296875 159.917969 342.011719 159.917969 L 682.789062 159.917969 C 685.5 159.917969 687.699219 162.113281 687.699219 164.824219 L 687.699219 402.207031 C 687.773438 404.917969 685.574219 407.117188 682.863281 407.117188 Z M 342.011719 161.308594 C 340.03125 161.308594 338.492188 162.921875 338.492188 164.824219 L 338.492188 402.207031 C 338.492188 404.1875 340.105469 405.726562 342.011719 405.726562 L 682.789062 405.726562 C 684.769531 405.726562 686.304688 404.113281 686.304688 402.207031 L 686.304688 164.824219 C 686.304688 162.847656 684.695312 161.308594 682.789062 161.308594 Z M 342.011719 161.308594 " fill-opacity="1" fill-rule="nonzero"/></g><path fill="#fda345" d="M 515.441406 182.703125 L 662.128906 182.703125 L 662.128906 290.039062 L 515.441406 290.039062 Z M 515.441406 182.703125 " fill-opacity="1" fill-rule="nonzero"/><g clip-path="url(#3b3c348ebb)"><path fill="#f4f8fb" d="M 540.425781 226.515625 C 540.132812 226.515625 539.765625 226.515625 539.472656 226.371094 C 536.835938 225.710938 535.222656 221.605469 533.539062 217.210938 C 531.78125 212.742188 529.800781 207.6875 526.796875 207.101562 C 521.082031 206 512.875 215.378906 512.800781 215.453125 C 512.582031 215.671875 512.214844 215.746094 511.996094 215.527344 C 511.777344 215.304688 511.703125 214.941406 511.921875 214.71875 C 512.289062 214.28125 520.570312 204.757812 526.945312 206 C 530.535156 206.660156 532.511719 211.789062 534.492188 216.773438 C 536.027344 220.726562 537.640625 224.757812 539.691406 225.269531 C 543.648438 226.222656 548.777344 218.457031 555.371094 208.566406 C 556.324219 207.175781 557.277344 205.707031 558.230469 204.242188 C 566.507812 191.859375 570.320312 190.03125 574.714844 190.910156 C 577.355469 191.421875 578.890625 198.382812 580.871094 208.125 C 581.75 212.667969 582.703125 217.359375 583.507812 218.308594 C 584.167969 219.117188 584.972656 219.410156 586 219.335938 C 588.199219 219.117188 590.617188 216.84375 592.445312 213.328125 C 595.597656 207.394531 599.40625 204.097656 601.753906 205.269531 C 602.632812 205.707031 603.363281 207.246094 604.464844 209.589844 C 605.417969 211.644531 606.808594 214.792969 607.832031 214.648438 C 609.007812 214.425781 609.371094 213.839844 609.8125 213.328125 C 610.105469 212.886719 610.546875 212.300781 611.351562 212.300781 C 612.230469 212.300781 612.816406 213.546875 613.84375 216.039062 C 614.429688 217.578125 615.601562 220.363281 616.332031 220.363281 C 616.773438 220.070312 617.796875 216.773438 618.53125 214.0625 C 620.4375 207.613281 622.855469 199.554688 626.738281 198.527344 C 627.691406 198.234375 628.570312 198.382812 629.375 198.820312 C 631.941406 200.285156 633.183594 205.269531 634.652344 211.058594 C 635.53125 214.574219 636.484375 218.164062 637.726562 221.460938 C 638.460938 223.367188 639.414062 224.316406 640.4375 224.390625 C 643.664062 224.683594 648.132812 217.210938 649.816406 214.425781 C 650.109375 213.914062 650.332031 213.546875 650.476562 213.328125 C 650.695312 213.035156 651.210938 212.15625 652.164062 212.230469 C 653.40625 212.300781 654.507812 214.0625 656.117188 217.503906 C 656.777344 218.894531 657.804688 219.628906 659.050781 219.554688 C 660.808594 219.484375 662.640625 217.945312 663.152344 216.625 C 663.226562 216.332031 663.59375 216.1875 663.886719 216.332031 C 664.179688 216.40625 664.324219 216.773438 664.253906 217.066406 C 663.664062 218.75 661.46875 220.65625 659.195312 220.726562 C 657.511719 220.800781 656.117188 219.847656 655.238281 218.015625 C 654.652344 216.773438 653.042969 213.402344 652.234375 213.328125 C 652.089844 213.328125 651.796875 213.546875 651.578125 213.914062 C 651.429688 214.132812 651.210938 214.5 650.917969 214.941406 C 649.011719 218.164062 644.46875 225.785156 640.511719 225.492188 C 638.972656 225.34375 637.726562 224.097656 636.847656 221.828125 C 635.53125 218.457031 634.652344 214.792969 633.699219 211.277344 C 632.378906 206 631.132812 201.019531 629.007812 199.773438 C 628.496094 199.480469 627.910156 199.40625 627.25 199.554688 C 623.953125 200.433594 621.460938 208.859375 619.851562 214.355469 C 618.386719 219.335938 617.726562 221.386719 616.625 221.460938 C 616.625 221.460938 616.554688 221.460938 616.554688 221.460938 C 615.085938 221.460938 614.0625 219.042969 613.035156 216.480469 C 612.597656 215.378906 611.863281 213.621094 611.496094 213.402344 C 611.351562 213.402344 611.203125 213.546875 610.910156 213.988281 C 610.546875 214.574219 609.886719 215.453125 608.273438 215.746094 C 606.367188 216.113281 604.976562 213.035156 603.65625 210.105469 C 602.925781 208.566406 602.046875 206.585938 601.460938 206.292969 C 600.214844 205.707031 596.917969 207.6875 593.621094 213.914062 C 591.566406 217.722656 588.855469 220.214844 586.292969 220.507812 C 584.902344 220.65625 583.726562 220.140625 582.847656 219.117188 C 581.894531 218.015625 581.164062 214.28125 579.992188 208.417969 C 578.746094 202.046875 576.839844 192.449219 574.714844 192.082031 C 570.757812 191.347656 567.316406 193.105469 559.402344 204.976562 C 558.449219 206.441406 557.425781 207.90625 556.542969 209.296875 C 549.804688 219.117188 544.894531 226.515625 540.425781 226.515625 Z M 540.425781 226.515625 " fill-opacity="1" fill-rule="nonzero"/></g><g clip-path="url(#f8bc11d2c6)"><path fill="#f4f8fb" d="M 573.25 241.167969 C 573.25 241.167969 573.175781 241.167969 573.175781 241.167969 C 570.464844 241.097656 569.148438 234.722656 567.609375 227.320312 C 566.289062 221.167969 564.75 213.546875 562.625 213.769531 C 560.648438 214.0625 557.277344 219.628906 554.054688 224.976562 C 549.292969 232.816406 544.382812 240.949219 539.839844 241.097656 C 539.765625 241.097656 539.691406 241.097656 539.621094 241.097656 C 535.078125 241.097656 532.660156 236.921875 530.460938 233.183594 C 528.847656 230.472656 527.382812 227.910156 525.332031 227.175781 C 520.347656 225.417969 513.976562 229.886719 513.902344 229.886719 C 513.683594 230.03125 513.316406 230.03125 513.09375 229.738281 C 512.949219 229.519531 512.949219 229.152344 513.242188 228.933594 C 513.535156 228.714844 520.128906 224.097656 525.625 226.078125 C 528.117188 226.957031 529.65625 229.667969 531.339844 232.597656 C 533.464844 236.261719 535.589844 239.996094 539.691406 239.925781 C 543.648438 239.777344 548.632812 231.570312 552.953125 224.316406 C 557.203125 217.210938 559.988281 212.886719 562.332031 212.59375 C 565.484375 212.15625 566.875 219.042969 568.5625 227.027344 C 569.734375 232.742188 571.273438 239.925781 573.105469 239.996094 C 575.007812 240.070312 577.792969 235.160156 580.210938 230.839844 C 583.433594 225.125 586.511719 219.703125 589.734375 219.996094 C 593.328125 220.289062 594.425781 226.222656 595.378906 231.425781 C 595.890625 234.210938 596.625 237.945312 597.503906 238.019531 C 597.503906 238.019531 597.574219 238.019531 597.574219 238.019531 C 598.894531 238.019531 600.140625 235.527344 601.167969 233.476562 C 602.265625 231.277344 603.21875 229.519531 604.464844 229.519531 C 605.636719 229.519531 606.660156 231.207031 607.980469 233.550781 C 609.445312 236.039062 611.203125 239.191406 612.890625 238.824219 C 614.136719 238.53125 615.894531 232.085938 617.210938 226.808594 C 619.558594 218.015625 621.976562 208.859375 625.636719 207.980469 C 626.664062 207.6875 627.691406 207.832031 628.496094 208.417969 C 631.28125 210.25 632.160156 216.257812 633.039062 222.046875 C 633.40625 224.539062 633.773438 226.808594 634.285156 228.789062 C 635.457031 233.621094 636.921875 234.503906 637.65625 234.574219 C 638.679688 234.722656 639.851562 233.621094 641.023438 231.5 C 643.664062 226.734375 645.566406 225.269531 648.351562 226.003906 C 649.671875 226.371094 650.257812 228.128906 650.917969 230.179688 C 651.648438 232.523438 652.527344 235.160156 654.433594 235.675781 C 657.292969 236.40625 661.613281 230.914062 663.007812 228.714844 C 663.152344 228.421875 663.519531 228.347656 663.738281 228.566406 C 664.03125 228.714844 664.105469 229.082031 663.886719 229.300781 C 663.664062 229.667969 658.390625 237.800781 654.140625 236.699219 C 651.648438 236.039062 650.695312 233.109375 649.816406 230.472656 C 649.304688 228.859375 648.792969 227.175781 648.058594 227.027344 C 646.082031 226.515625 644.617188 227.175781 641.976562 231.9375 C 640.144531 235.234375 638.535156 235.746094 637.433594 235.601562 C 635.601562 235.382812 634.136719 233.109375 633.113281 228.933594 C 632.597656 226.957031 632.234375 224.609375 631.867188 222.121094 C 631.0625 216.84375 630.109375 210.835938 627.761719 209.226562 C 627.175781 208.859375 626.519531 208.710938 625.785156 208.933594 C 622.707031 209.664062 620.144531 219.261719 618.164062 226.957031 C 616.039062 234.867188 614.792969 239.335938 612.964844 239.777344 C 610.472656 240.363281 608.492188 236.992188 606.808594 233.988281 C 606.003906 232.597656 604.828125 230.472656 604.242188 230.472656 C 603.65625 230.472656 602.632812 232.449219 601.898438 233.84375 C 600.582031 236.480469 599.1875 239.117188 597.136719 238.972656 C 595.378906 238.824219 594.792969 235.746094 594.058594 231.425781 C 593.179688 226.808594 592.152344 221.09375 589.441406 220.875 C 586.878906 220.726562 583.800781 226.296875 581.015625 231.207031 C 578.304688 236.699219 575.816406 241.167969 573.25 241.167969 Z M 573.25 241.167969 " fill-opacity="1" fill-rule="nonzero"/></g><g clip-path="url(#fee4b80539)"><path fill="#f4f8fb" d="M 605.929688 275.457031 C 605.78125 275.457031 605.5625 275.386719 605.417969 275.3125 C 604.242188 274.726562 603.292969 271.28125 601.460938 264.761719 C 599.335938 257.140625 596.109375 245.566406 592.8125 245.566406 C 589.296875 245.566406 586.660156 250.988281 583.875 256.703125 C 582.335938 259.851562 580.722656 263.148438 578.890625 265.714844 C 574.570312 271.574219 570.171875 269.523438 566.949219 268.058594 C 565.996094 267.617188 565.117188 267.253906 564.386719 267.03125 C 562.847656 266.667969 561.96875 267.546875 561.015625 268.496094 C 559.988281 269.523438 558.890625 270.621094 557.058594 269.816406 C 555.59375 269.15625 554.933594 267.105469 554.273438 264.835938 C 553.394531 262.050781 552.515625 259.121094 549.949219 258.898438 C 547.605469 258.753906 544.75 263.074219 542.332031 266.960938 C 539.765625 270.914062 537.566406 274.359375 535.371094 274.066406 C 533.246094 273.699219 531.558594 268.71875 529.070312 260.585938 C 527.457031 255.308594 525.476562 248.644531 523.941406 248.277344 C 521.15625 247.542969 516.171875 252.890625 514.488281 255.015625 C 514.269531 255.238281 513.976562 255.308594 513.683594 255.089844 C 513.460938 254.871094 513.390625 254.578125 513.609375 254.285156 C 514.269531 253.476562 520.277344 246.078125 524.234375 247.175781 C 526.210938 247.691406 527.75 252.453125 530.09375 260.292969 C 531.707031 265.566406 533.832031 272.746094 535.441406 272.96875 C 536.910156 273.1875 539.253906 269.597656 541.304688 266.375 C 544.089844 262.050781 546.945312 257.582031 549.949219 257.800781 C 553.246094 258.09375 554.347656 261.464844 555.226562 264.542969 C 555.8125 266.519531 556.398438 268.351562 557.425781 268.789062 C 558.523438 269.230469 559.183594 268.71875 560.136719 267.691406 C 561.160156 266.667969 562.40625 265.421875 564.53125 265.933594 C 565.410156 266.152344 566.363281 266.59375 567.316406 267.03125 C 570.539062 268.496094 574.128906 270.183594 577.867188 265.054688 C 579.699219 262.636719 581.238281 259.339844 582.777344 256.1875 C 585.707031 250.109375 588.492188 244.394531 592.742188 244.394531 C 596.625 244.394531 599.261719 253.039062 602.410156 264.394531 C 603.585938 268.570312 605.050781 273.847656 605.78125 274.210938 C 606.660156 274.652344 610.179688 268.644531 611.863281 265.785156 C 615.015625 260.4375 617.066406 257.140625 618.605469 257.140625 C 620.582031 257.140625 621.316406 259.191406 621.976562 260.953125 C 622.414062 262.125 622.855469 263.296875 623.515625 263.734375 C 623.734375 263.882812 624.101562 263.515625 624.832031 262.488281 C 626.152344 260.730469 628.351562 257.726562 633.039062 260.21875 C 639.632812 263.734375 645.859375 263.441406 651.136719 259.339844 C 654.800781 256.480469 659.710938 255.089844 664.03125 255.75 C 667.695312 256.335938 670.773438 258.3125 672.898438 261.464844 C 673.042969 261.683594 672.972656 262.050781 672.75 262.269531 C 672.53125 262.417969 672.164062 262.417969 671.945312 262.125 C 669.96875 259.191406 667.109375 257.363281 663.8125 256.847656 C 659.855469 256.261719 655.238281 257.507812 651.796875 260.21875 C 646.300781 264.542969 639.414062 264.90625 632.453125 261.171875 C 628.570312 259.121094 626.957031 261.316406 625.710938 263.074219 C 624.90625 264.175781 624.101562 265.273438 622.925781 264.613281 C 621.902344 264.027344 621.390625 262.636719 620.875 261.246094 C 620.214844 259.339844 619.628906 258.167969 618.53125 258.167969 C 617.503906 258.167969 614.648438 263.074219 612.742188 266.300781 C 609.664062 272.085938 607.613281 275.457031 605.929688 275.457031 Z M 605.929688 275.457031 " fill-opacity="1" fill-rule="nonzero"/></g><path fill="#e4eef4" d="M 355.859375 301.761719 L 477.339844 301.761719 L 477.339844 316.707031 L 355.859375 316.707031 Z M 355.859375 301.761719 " fill-opacity="1" fill-rule="nonzero"/><path fill="#ff90c8" d="M 366.042969 322.496094 L 477.339844 322.496094 L 477.339844 330.261719 L 366.042969 330.261719 Z M 366.042969 322.496094 " fill-opacity="1" fill-rule="nonzero"/><path fill="#ff90c8" d="M 362.671875 326.378906 C 362.671875 326.855469 362.582031 327.3125 362.398438 327.753906 C 362.214844 328.191406 361.957031 328.582031 361.621094 328.917969 C 361.285156 329.253906 360.894531 329.511719 360.457031 329.695312 C 360.015625 329.878906 359.558594 329.96875 359.082031 329.96875 C 358.605469 329.96875 358.148438 329.878906 357.707031 329.695312 C 357.269531 329.511719 356.878906 329.253906 356.542969 328.917969 C 356.207031 328.582031 355.945312 328.191406 355.765625 327.753906 C 355.582031 327.3125 355.492188 326.855469 355.492188 326.378906 C 355.492188 325.902344 355.582031 325.445312 355.765625 325.003906 C 355.945312 324.566406 356.207031 324.175781 356.542969 323.839844 C 356.878906 323.503906 357.269531 323.242188 357.707031 323.0625 C 358.148438 322.878906 358.605469 322.789062 359.082031 322.789062 C 359.558594 322.789062 360.015625 322.878906 360.457031 323.0625 C 360.894531 323.242188 361.285156 323.503906 361.621094 323.839844 C 361.957031 324.175781 362.214844 324.566406 362.398438 325.003906 C 362.582031 325.445312 362.671875 325.902344 362.671875 326.378906 Z M 362.671875 326.378906 " fill-opacity="1" fill-rule="nonzero"/><path fill="#ff90c8" d="M 366.042969 335.316406 L 477.339844 335.316406 L 477.339844 343.082031 L 366.042969 343.082031 Z M 366.042969 335.316406 " fill-opacity="1" fill-rule="nonzero"/><path fill="#ff90c8" d="M 362.671875 339.199219 C 362.671875 337.222656 361.058594 335.609375 359.082031 335.609375 C 357.101562 335.609375 355.492188 337.222656 355.492188 339.199219 C 355.492188 341.179688 357.101562 342.789062 359.082031 342.789062 C 361.058594 342.789062 362.671875 341.179688 362.671875 339.199219 Z M 362.671875 339.199219 " fill-opacity="1" fill-rule="nonzero"/><path fill="#ff90c8" d="M 366.042969 348.429688 L 477.339844 348.429688 L 477.339844 356.199219 L 366.042969 356.199219 Z M 366.042969 348.429688 " fill-opacity="1" fill-rule="nonzero"/><path fill="#ff90c8" d="M 362.671875 352.316406 C 362.671875 352.789062 362.582031 353.25 362.398438 353.6875 C 362.214844 354.128906 361.957031 354.515625 361.621094 354.851562 C 361.285156 355.191406 360.894531 355.449219 360.457031 355.632812 C 360.015625 355.8125 359.558594 355.90625 359.082031 355.90625 C 358.605469 355.90625 358.148438 355.8125 357.707031 355.632812 C 357.269531 355.449219 356.878906 355.191406 356.542969 354.851562 C 356.207031 354.515625 355.945312 354.128906 355.765625 353.6875 C 355.582031 353.25 355.492188 352.789062 355.492188 352.316406 C 355.492188 351.839844 355.582031 351.378906 355.765625 350.941406 C 355.945312 350.5 356.207031 350.113281 356.542969 349.777344 C 356.878906 349.4375 357.269531 349.179688 357.707031 348.996094 C 358.148438 348.816406 358.605469 348.722656 359.082031 348.722656 C 359.558594 348.722656 360.015625 348.816406 360.457031 348.996094 C 360.894531 349.179688 361.285156 349.4375 361.621094 349.777344 C 361.957031 350.113281 362.214844 350.5 362.398438 350.941406 C 362.582031 351.378906 362.671875 351.839844 362.671875 352.316406 Z M 362.671875 352.316406 " fill-opacity="1" fill-rule="nonzero"/><path fill="#7387dd" d="M 492.066406 391.585938 L 359.449219 391.585938 C 357.46875 391.585938 355.859375 389.972656 355.859375 387.996094 L 355.859375 370.339844 C 355.859375 368.359375 357.46875 366.75 359.449219 366.75 L 492.066406 366.75 C 494.046875 366.75 495.65625 368.359375 495.65625 370.339844 L 495.65625 387.996094 C 495.65625 389.972656 494.046875 391.585938 492.066406 391.585938 Z M 492.066406 391.585938 " fill-opacity="1" fill-rule="nonzero"/><path fill="#cde0e8" d="M 362.671875 372.023438 L 483.933594 372.023438 L 483.933594 373.121094 L 362.671875 373.121094 Z M 362.671875 372.023438 " fill-opacity="1" fill-rule="nonzero"/><path fill="#cde0e8" d="M 362.671875 378.617188 L 483.933594 378.617188 L 483.933594 379.714844 L 362.671875 379.714844 Z M 362.671875 378.617188 " fill-opacity="1" fill-rule="nonzero"/><path fill="#cde0e8" d="M 362.671875 385.136719 L 443.5625 385.136719 L 443.5625 386.238281 L 362.671875 386.238281 Z M 362.671875 385.136719 " fill-opacity="1" fill-rule="nonzero"/><path fill="#e4eef4" d="M 440.046875 178.671875 L 440.046875 182.484375 L 358.640625 182.484375 C 353.292969 182.484375 349.042969 186.804688 349.042969 192.082031 L 349.042969 283.664062 C 349.042969 289.011719 353.367188 293.261719 358.640625 293.261719 L 480.855469 293.261719 C 486.207031 293.261719 490.457031 288.9375 490.457031 283.664062 L 490.457031 178.746094 C 490.457031 176.109375 488.332031 174.058594 485.765625 174.058594 L 444.734375 174.058594 C 442.171875 173.984375 440.046875 176.109375 440.046875 178.671875 Z M 440.046875 178.671875 " fill-opacity="1" fill-rule="nonzero"/><path fill="#cde0e8" d="M 457.484375 180.136719 C 457.484375 178.746094 456.382812 177.648438 454.992188 177.648438 C 453.601562 177.648438 452.5 178.746094 452.5 180.136719 C 452.5 181.53125 453.601562 182.628906 454.992188 182.628906 C 456.382812 182.703125 457.484375 181.53125 457.484375 180.136719 Z M 457.484375 180.136719 " fill-opacity="1" fill-rule="nonzero"/><path fill="#cde0e8" d="M 467.300781 180.136719 C 467.300781 180.46875 467.238281 180.785156 467.113281 181.09375 C 466.984375 181.398438 466.804688 181.667969 466.570312 181.898438 C 466.339844 182.132812 466.070312 182.3125 465.765625 182.441406 C 465.457031 182.566406 465.140625 182.628906 464.8125 182.628906 C 464.480469 182.628906 464.164062 182.566406 463.855469 182.441406 C 463.550781 182.3125 463.28125 182.132812 463.050781 181.898438 C 462.816406 181.667969 462.636719 181.398438 462.507812 181.09375 C 462.382812 180.785156 462.320312 180.46875 462.320312 180.136719 C 462.320312 179.808594 462.382812 179.492188 462.507812 179.183594 C 462.636719 178.878906 462.816406 178.609375 463.050781 178.378906 C 463.28125 178.144531 463.550781 177.964844 463.855469 177.835938 C 464.164062 177.710938 464.480469 177.648438 464.8125 177.648438 C 465.140625 177.648438 465.457031 177.710938 465.765625 177.835938 C 466.070312 177.964844 466.339844 178.144531 466.570312 178.378906 C 466.804688 178.609375 466.984375 178.878906 467.113281 179.183594 C 467.238281 179.492188 467.300781 179.808594 467.300781 180.136719 Z M 467.300781 180.136719 " fill-opacity="1" fill-rule="nonzero"/><path fill="#cde0e8" d="M 477.046875 180.136719 C 477.046875 178.746094 475.949219 177.648438 474.554688 177.648438 C 473.164062 177.648438 472.0625 178.746094 472.0625 180.136719 C 472.0625 181.53125 473.164062 182.628906 474.554688 182.628906 C 475.949219 182.703125 477.046875 181.53125 477.046875 180.136719 Z M 477.046875 180.136719 " fill-opacity="1" fill-rule="nonzero"/><path fill="#ff90c8" d="M 458.40625 232.613281 C 458.636719 234.039062 458.792969 235.46875 458.878906 236.910156 C 458.964844 238.347656 458.980469 239.789062 458.925781 241.230469 C 458.871094 242.671875 458.746094 244.105469 458.550781 245.535156 C 458.355469 246.964844 458.089844 248.378906 457.753906 249.78125 C 457.417969 251.183594 457.015625 252.566406 456.546875 253.929688 C 456.074219 255.292969 455.539062 256.628906 454.9375 257.941406 C 454.332031 259.25 453.667969 260.53125 452.941406 261.773438 C 452.210938 263.019531 451.425781 264.226562 450.578125 265.394531 C 449.734375 266.5625 448.832031 267.683594 447.875 268.765625 C 446.917969 269.84375 445.910156 270.871094 444.851562 271.851562 C 443.796875 272.832031 442.691406 273.757812 441.542969 274.632812 C 440.394531 275.503906 439.207031 276.316406 437.976562 277.070312 C 436.746094 277.824219 435.484375 278.519531 434.1875 279.148438 C 432.890625 279.78125 431.566406 280.347656 430.214844 280.847656 C 428.863281 281.347656 427.488281 281.78125 426.09375 282.148438 C 424.699219 282.511719 423.289062 282.808594 421.863281 283.039062 C 420.441406 283.265625 419.007812 283.421875 417.566406 283.507812 C 416.128906 283.59375 414.6875 283.609375 413.246094 283.554688 C 411.804688 283.5 410.371094 283.375 408.941406 283.179688 C 407.511719 282.984375 406.097656 282.71875 404.695312 282.382812 C 403.292969 282.046875 401.910156 281.644531 400.546875 281.175781 C 399.183594 280.703125 397.847656 280.167969 396.535156 279.566406 C 395.226562 278.960938 393.945312 278.296875 392.703125 277.570312 C 391.457031 276.84375 390.25 276.054688 389.082031 275.210938 C 387.914062 274.363281 386.792969 273.460938 385.710938 272.503906 C 384.632812 271.546875 383.601562 270.539062 382.621094 269.484375 C 381.644531 268.425781 380.714844 267.320312 379.84375 266.171875 C 378.972656 265.023438 378.160156 263.835938 377.40625 262.605469 C 376.648438 261.378906 375.957031 260.117188 375.324219 258.820312 C 374.695312 257.523438 374.128906 256.195312 373.628906 254.84375 C 373.128906 253.492188 372.695312 252.117188 372.328125 250.722656 C 371.960938 249.328125 371.664062 247.917969 371.4375 246.496094 C 371.210938 245.070312 371.054688 243.640625 370.96875 242.199219 C 370.878906 240.761719 370.863281 239.320312 370.917969 237.878906 C 370.972656 236.4375 371.101562 235.003906 371.296875 233.574219 C 371.492188 232.144531 371.757812 230.730469 372.09375 229.328125 C 372.425781 227.925781 372.828125 226.542969 373.300781 225.179688 C 373.773438 223.816406 374.308594 222.476562 374.910156 221.167969 C 375.511719 219.855469 376.175781 218.578125 376.90625 217.335938 C 377.632812 216.089844 378.421875 214.882812 379.265625 213.714844 C 380.113281 212.546875 381.015625 211.425781 381.972656 210.34375 C 382.925781 209.265625 383.933594 208.234375 384.992188 207.257812 C 386.050781 206.277344 387.152344 205.351562 388.304688 204.476562 C 389.453125 203.605469 390.640625 202.792969 391.871094 202.039062 C 393.097656 201.28125 394.359375 200.589844 395.65625 199.960938 C 396.953125 199.328125 398.28125 198.761719 399.632812 198.261719 C 400.984375 197.761719 402.359375 197.328125 403.753906 196.960938 C 405.148438 196.597656 406.558594 196.300781 407.980469 196.070312 C 409.40625 195.84375 410.839844 195.6875 412.277344 195.601562 C 413.71875 195.515625 415.15625 195.5 416.597656 195.554688 C 418.039062 195.609375 419.476562 195.734375 420.902344 195.929688 C 422.332031 196.125 423.75 196.390625 425.152344 196.726562 C 426.554688 197.0625 427.9375 197.464844 429.300781 197.933594 C 430.664062 198.40625 432 198.941406 433.3125 199.542969 C 434.621094 200.144531 435.898438 200.8125 437.144531 201.539062 C 438.390625 202.265625 439.59375 203.054688 440.761719 203.898438 C 441.929688 204.746094 443.054688 205.648438 444.132812 206.605469 C 445.214844 207.5625 446.242188 208.566406 447.222656 209.625 C 448.203125 210.683594 449.128906 211.785156 450 212.9375 C 450.875 214.085938 451.6875 215.273438 452.441406 216.503906 C 453.195312 217.730469 453.890625 218.992188 454.519531 220.289062 C 455.152344 221.585938 455.71875 222.910156 456.21875 224.265625 C 456.71875 225.617188 457.152344 226.992188 457.519531 228.386719 C 457.882812 229.78125 458.179688 231.191406 458.40625 232.613281 Z M 458.40625 232.613281 " fill-opacity="1" fill-rule="nonzero"/><path fill="#7387dd" d="M 382.453125 209.8125 L 414.914062 239.558594 L 458.730469 235.746094 C 456.824219 213.253906 437.921875 195.523438 414.914062 195.523438 C 402.089844 195.523438 390.515625 201.019531 382.453125 209.8125 Z M 382.453125 209.8125 " fill-opacity="1" fill-rule="nonzero"/><path fill="#79154d" d="M 438.433594 202.339844 L 414.914062 239.558594 L 458.730469 235.746094 C 457.558594 221.679688 449.71875 209.519531 438.433594 202.339844 Z M 438.433594 202.339844 " fill-opacity="1" fill-rule="nonzero"/><path fill="#fda345" d="M 566.800781 383.527344 L 566.800781 353.265625 C 566.800781 350.847656 568.78125 348.871094 571.199219 348.871094 L 578.597656 348.871094 C 581.015625 348.871094 582.996094 350.847656 582.996094 353.265625 L 582.996094 383.527344 Z M 566.800781 383.527344 " fill-opacity="1" fill-rule="nonzero"/><path fill="#7387dd" d="M 606.074219 383.527344 L 606.074219 342.644531 C 606.074219 340.226562 604.097656 338.246094 601.679688 338.246094 L 594.277344 338.246094 C 591.859375 338.246094 589.882812 340.226562 589.882812 342.644531 L 589.882812 383.527344 Z M 606.074219 383.527344 " fill-opacity="1" fill-rule="nonzero"/><path fill="#fda345" d="M 616.773438 383.527344 L 616.773438 334.949219 C 616.773438 332.753906 618.53125 330.992188 620.730469 330.992188 L 630.472656 330.992188 C 632.671875 330.992188 634.429688 332.753906 634.429688 334.949219 L 634.429688 383.527344 Z M 616.773438 383.527344 " fill-opacity="1" fill-rule="nonzero"/><path fill="#7387dd" d="M 645.566406 383.527344 L 645.566406 321.835938 C 645.566406 319.636719 647.328125 317.878906 649.523438 317.878906 L 659.269531 317.878906 C 661.46875 317.878906 663.226562 319.636719 663.226562 321.835938 L 663.226562 383.527344 Z M 645.566406 383.527344 " fill-opacity="1" fill-rule="nonzero"/><path fill="#cde0e8" d="M 674.804688 384.113281 L 553.46875 384.113281 C 553.175781 384.113281 552.882812 383.890625 552.882812 383.527344 L 552.882812 303.59375 C 552.882812 303.300781 553.101562 303.007812 553.46875 303.007812 C 553.761719 303.007812 554.054688 303.226562 554.054688 303.59375 L 554.054688 383.011719 L 674.875 383.011719 C 675.167969 383.011719 675.460938 383.234375 675.460938 383.597656 C 675.390625 383.890625 675.167969 384.113281 674.804688 384.113281 Z M 674.804688 384.113281 " fill-opacity="1" fill-rule="nonzero"/><path fill="#cde0e8" d="M 655.019531 391.074219 L 566.800781 391.074219 C 566.507812 391.074219 566.214844 390.851562 566.214844 390.488281 C 566.214844 390.191406 566.4375 389.898438 566.800781 389.898438 L 655.019531 389.898438 C 655.3125 389.898438 655.605469 390.121094 655.605469 390.488281 C 655.53125 390.78125 655.3125 391.074219 655.019531 391.074219 Z M 655.019531 391.074219 " fill-opacity="1" fill-rule="nonzero"/><path fill="#fda345" d="M 556.910156 387.1875 L 563.503906 387.1875 L 563.503906 393.785156 L 556.910156 393.785156 Z M 556.910156 387.1875 " fill-opacity="1" fill-rule="nonzero"/><path fill="#cde0e8" d="M 655.019531 399.351562 L 566.800781 399.351562 C 566.507812 399.351562 566.214844 399.132812 566.214844 398.765625 C 566.214844 398.472656 566.4375 398.179688 566.800781 398.179688 L 655.019531 398.179688 C 655.3125 398.179688 655.605469 398.398438 655.605469 398.765625 C 655.53125 399.132812 655.3125 399.351562 655.019531 399.351562 Z M 655.019531 399.351562 " fill-opacity="1" fill-rule="nonzero"/><path fill="#7387dd" d="M 556.910156 395.46875 L 563.503906 395.46875 L 563.503906 402.0625 L 556.910156 402.0625 Z M 556.910156 395.46875 " fill-opacity="1" fill-rule="nonzero"/><path fill="#cde0e8" d="M 646.960938 309.015625 L 553.46875 309.015625 C 553.175781 309.015625 552.882812 308.792969 552.882812 308.429688 C 552.882812 308.136719 553.101562 307.84375 553.46875 307.84375 L 647.035156 307.84375 C 647.328125 307.84375 647.621094 308.0625 647.621094 308.429688 C 647.546875 308.722656 647.253906 309.015625 646.960938 309.015625 Z M 646.960938 309.015625 " fill-opacity="1" fill-rule="nonzero"/><path fill="#cde0e8" d="M 626.882812 316.78125 L 553.46875 316.78125 C 553.175781 316.78125 552.882812 316.5625 552.882812 316.195312 C 552.882812 315.902344 553.101562 315.609375 553.46875 315.609375 L 626.957031 315.609375 C 627.25 315.609375 627.542969 315.828125 627.542969 316.195312 C 627.46875 316.488281 627.25 316.78125 626.882812 316.78125 Z M 626.882812 316.78125 " fill-opacity="1" fill-rule="nonzero"/><path fill="#e4eef4" d="M 629.886719 316.195312 C 629.886719 314.730469 628.714844 313.558594 627.25 313.558594 C 625.785156 313.558594 624.613281 314.730469 624.613281 316.195312 C 624.613281 317.660156 625.785156 318.832031 627.25 318.832031 C 628.789062 318.832031 629.886719 317.660156 629.886719 316.195312 Z M 629.886719 316.195312 " fill-opacity="1" fill-rule="nonzero"/><path fill="#e4eef4" d="M 650.332031 308.429688 C 650.332031 306.960938 649.160156 305.789062 647.691406 305.789062 C 646.226562 305.789062 645.054688 306.960938 645.054688 308.429688 C 645.054688 309.894531 646.226562 311.066406 647.691406 311.066406 C 649.160156 311.066406 650.332031 309.894531 650.332031 308.429688 Z M 650.332031 308.429688 " fill-opacity="1" fill-rule="nonzero"/><g clip-path="url(#644868691c)"><path fill="#d2e5ef" d="M 378.761719 589.933594 L 295.972656 589.933594 L 321.808594 642.90625 L 313.585938 642.90625 C 308.230469 642.90625 303.109375 645.238281 299.542969 649.277344 L 298.535156 650.441406 L 399.632812 650.441406 C 399.632812 645.46875 398.699219 640.5 396.839844 635.917969 Z M 378.761719 589.933594 " fill-opacity="1" fill-rule="nonzero"/></g><path fill="#84b0c8" d="M 378.761719 589.933594 L 295.972656 589.933594 L 303.808594 606.011719 L 380.621094 594.75 Z M 378.761719 589.933594 " fill-opacity="0.3" fill-rule="nonzero"/><path fill="#d2e5ef" d="M 467.988281 589.933594 L 127.0625 589.933594 C 124.65625 589.933594 122.796875 587.992188 122.796875 585.664062 L 122.796875 312.414062 C 122.796875 310.003906 124.734375 308.140625 127.0625 308.140625 L 468.0625 308.140625 C 470.46875 308.140625 472.332031 310.082031 472.332031 312.414062 L 472.332031 585.585938 C 472.332031 587.992188 470.390625 589.933594 467.988281 589.933594 Z M 467.988281 589.933594 " fill-opacity="1" fill-rule="nonzero"/><g clip-path="url(#bd65a88df9)"><path fill="#a5c6d3" d="M 467.988281 590.710938 L 127.0625 590.710938 C 124.269531 590.710938 121.941406 588.382812 121.941406 585.585938 L 121.941406 312.414062 C 121.941406 309.617188 124.269531 307.285156 127.0625 307.285156 L 468.0625 307.285156 C 470.855469 307.285156 473.183594 309.617188 473.183594 312.414062 L 473.183594 585.585938 C 473.105469 588.457031 470.855469 590.710938 467.988281 590.710938 Z M 127.0625 308.996094 C 125.203125 308.996094 123.648438 310.550781 123.648438 312.414062 L 123.648438 585.585938 C 123.648438 587.527344 125.203125 589.003906 127.0625 589.003906 L 468.0625 589.003906 C 470.003906 589.003906 471.476562 587.449219 471.476562 585.585938 L 471.476562 312.414062 C 471.476562 310.550781 469.925781 308.996094 468.0625 308.996094 Z M 127.0625 308.996094 " fill-opacity="1" fill-rule="nonzero"/></g><path fill="#f4f8fb" d="M 122.71875 333.074219 L 472.253906 333.074219 L 472.253906 549.699219 L 122.71875 549.699219 Z M 122.71875 333.074219 " fill-opacity="1" fill-rule="nonzero"/><g clip-path="url(#9a248bb10e)"><path fill="#a5c6d3" d="M 467.988281 590.710938 L 127.0625 590.710938 C 124.269531 590.710938 121.941406 588.382812 121.941406 585.585938 L 121.941406 312.414062 C 121.941406 309.617188 124.269531 307.285156 127.0625 307.285156 L 468.0625 307.285156 C 470.855469 307.285156 473.183594 309.617188 473.183594 312.414062 L 473.183594 585.585938 C 473.105469 588.457031 470.855469 590.710938 467.988281 590.710938 Z M 127.0625 308.996094 C 125.203125 308.996094 123.648438 310.550781 123.648438 312.414062 L 123.648438 585.585938 C 123.648438 587.527344 125.203125 589.003906 127.0625 589.003906 L 468.0625 589.003906 C 470.003906 589.003906 471.476562 587.449219 471.476562 585.585938 L 471.476562 312.414062 C 471.476562 310.550781 469.925781 308.996094 468.0625 308.996094 Z M 127.0625 308.996094 " fill-opacity="1" fill-rule="nonzero"/></g><path fill="#84b0c8" d="M 380.621094 643.527344 L 313.507812 643.527344 C 313.199219 643.527344 312.886719 643.21875 312.886719 642.90625 C 312.886719 642.597656 313.199219 642.285156 313.507812 642.285156 L 380.621094 642.285156 C 380.933594 642.285156 381.242188 642.597656 381.242188 642.90625 C 381.242188 643.21875 380.933594 643.527344 380.621094 643.527344 Z M 380.621094 643.527344 " fill-opacity="1" fill-rule="nonzero"/><path fill="#e4eef4" d="M 198.910156 353.113281 L 198.910156 351.480469 C 198.910156 348.296875 196.351562 345.734375 193.167969 345.734375 L 160.503906 345.734375 C 157.324219 345.734375 154.761719 348.296875 154.761719 351.480469 L 154.761719 470.007812 C 154.761719 472.726562 156.933594 474.902344 159.652344 474.902344 L 297.523438 474.902344 C 300.242188 474.902344 302.414062 472.726562 302.414062 470.007812 L 302.414062 358.007812 C 302.414062 355.289062 300.242188 353.113281 297.523438 353.113281 Z M 198.910156 353.113281 " fill-opacity="1" fill-rule="nonzero"/><path fill="#a5c6d3" d="M 297.601562 475.679688 L 159.726562 475.679688 C 156.546875 475.679688 153.988281 473.117188 153.988281 469.929688 L 153.988281 351.480469 C 153.988281 347.910156 156.933594 344.957031 160.503906 344.957031 L 193.167969 344.957031 C 196.738281 344.957031 199.6875 347.910156 199.6875 351.480469 L 199.6875 352.335938 L 297.601562 352.335938 C 300.785156 352.335938 303.34375 354.898438 303.34375 358.085938 L 303.34375 470.085938 C 303.34375 473.117188 300.785156 475.679688 297.601562 475.679688 Z M 160.503906 346.511719 C 157.789062 346.511719 155.617188 348.6875 155.617188 351.40625 L 155.617188 469.929688 C 155.617188 472.183594 157.476562 474.046875 159.726562 474.046875 L 297.601562 474.046875 C 299.851562 474.046875 301.714844 472.183594 301.714844 469.929688 L 301.714844 358.007812 C 301.714844 355.753906 299.851562 353.890625 297.601562 353.890625 L 198.132812 353.890625 L 198.132812 351.480469 C 198.132812 348.761719 195.960938 346.589844 193.246094 346.589844 L 160.503906 346.589844 Z M 160.503906 346.511719 " fill-opacity="1" fill-rule="nonzero"/><path fill="#ff90c8" d="M 266.179688 373.074219 L 169.503906 373.074219 C 167.097656 373.074219 165.160156 375.015625 165.160156 377.425781 L 165.160156 455.40625 C 165.160156 457.816406 167.097656 459.757812 169.503906 459.757812 L 266.179688 459.757812 C 268.585938 459.757812 270.523438 457.816406 270.523438 455.40625 L 270.523438 377.425781 C 270.523438 375.015625 268.585938 373.074219 266.179688 373.074219 Z M 266.179688 373.074219 " fill-opacity="1" fill-rule="nonzero"/><path fill="#cde0e8" d="M 278.824219 367.949219 L 295.121094 367.949219 L 295.121094 373.074219 L 278.824219 373.074219 Z M 278.824219 367.949219 " fill-opacity="1" fill-rule="nonzero"/><path fill="#cde0e8" d="M 278.824219 376.335938 L 295.121094 376.335938 L 295.121094 381.464844 L 278.824219 381.464844 Z M 278.824219 376.335938 " fill-opacity="1" fill-rule="nonzero"/><path fill="#cde0e8" d="M 278.824219 384.804688 L 295.121094 384.804688 L 295.121094 389.929688 L 278.824219 389.929688 Z M 278.824219 384.804688 " fill-opacity="1" fill-rule="nonzero"/><path fill="#cde0e8" d="M 278.824219 393.191406 L 295.121094 393.191406 L 295.121094 398.316406 L 278.824219 398.316406 Z M 278.824219 393.191406 " fill-opacity="1" fill-rule="nonzero"/><g clip-path="url(#110937477b)"><g clip-path="url(#d96ecd8656)"><path fill="#e8f2f8" d="M 236.386719 416.648438 C 236.152344 416.648438 235.996094 416.492188 235.917969 416.339844 L 226.996094 385.113281 L 218.230469 413 C 218.152344 413.152344 217.996094 413.308594 217.765625 413.308594 C 217.53125 413.308594 217.375 413.152344 217.375 412.921875 L 211.324219 386.355469 L 206.515625 407.640625 C 206.4375 407.792969 206.28125 407.949219 206.125 407.949219 C 205.96875 407.949219 205.738281 407.871094 205.660156 407.714844 L 204.652344 405.542969 L 202.324219 412.921875 C 202.167969 413.386719 201.78125 413.695312 201.316406 413.695312 C 200.851562 413.695312 200.382812 413.386719 200.308594 412.921875 L 190.453125 380.84375 L 180.367188 402.824219 C 180.289062 402.980469 180.132812 403.054688 179.980469 403.054688 C 179.824219 403.054688 179.667969 402.980469 179.589844 402.746094 L 172.296875 385.65625 L 164.460938 398.941406 C 164.304688 399.171875 164.074219 399.25 163.839844 399.09375 C 163.609375 398.941406 163.53125 398.707031 163.683594 398.472656 L 171.988281 384.492188 C 172.066406 384.335938 172.21875 384.257812 172.375 384.257812 C 172.53125 384.257812 172.683594 384.335938 172.761719 384.492188 L 179.980469 401.425781 L 190.144531 379.289062 C 190.21875 379.132812 190.375 378.976562 190.609375 379.054688 C 190.761719 379.054688 190.917969 379.210938 190.996094 379.367188 L 201.160156 412.53125 C 201.160156 412.6875 201.316406 412.6875 201.316406 412.6875 C 201.394531 412.6875 201.46875 412.6875 201.46875 412.53125 L 204.1875 404.066406 C 204.265625 403.910156 204.417969 403.753906 204.574219 403.753906 C 204.730469 403.753906 204.960938 403.832031 205.039062 403.988281 L 205.96875 406.007812 L 210.9375 384.105469 C 211.015625 383.871094 211.167969 383.792969 211.402344 383.792969 C 211.632812 383.792969 211.789062 383.949219 211.867188 384.183594 L 217.996094 411.054688 L 226.6875 383.328125 C 226.765625 383.171875 226.917969 383.015625 227.152344 383.015625 C 227.386719 383.015625 227.539062 383.171875 227.539062 383.328125 L 236.929688 415.949219 C 237.007812 416.183594 236.851562 416.414062 236.617188 416.492188 C 236.464844 416.648438 236.464844 416.648438 236.386719 416.648438 Z M 236.386719 416.648438 " fill-opacity="1" fill-rule="nonzero"/></g></g><g clip-path="url(#da1acc7a11)"><g clip-path="url(#5745d3eb90)"><path fill="#e8f2f8" d="M 204.109375 439.796875 C 203.644531 439.796875 203.253906 439.484375 203.101562 439.019531 L 189.054688 395.289062 L 181.21875 426.746094 C 181.140625 427.210938 180.753906 427.523438 180.289062 427.601562 C 179.824219 427.679688 179.433594 427.445312 179.203125 427.058594 L 169.425781 409.191406 L 164.382812 416.726562 C 164.226562 416.960938 163.996094 416.960938 163.761719 416.882812 C 163.53125 416.726562 163.53125 416.492188 163.609375 416.261719 L 169.039062 408.105469 C 169.117188 407.949219 169.269531 407.871094 169.425781 407.871094 C 169.582031 407.871094 169.738281 407.949219 169.816406 408.105469 L 179.902344 426.589844 C 179.980469 426.667969 180.054688 426.667969 180.132812 426.667969 C 180.210938 426.667969 180.289062 426.667969 180.289062 426.511719 L 188.511719 393.503906 C 188.589844 393.347656 188.746094 393.191406 188.902344 393.191406 C 189.132812 393.191406 189.289062 393.347656 189.367188 393.503906 L 203.875 438.707031 C 203.953125 438.863281 204.03125 438.863281 204.109375 438.863281 C 204.1875 438.863281 204.265625 438.863281 204.265625 438.707031 L 210.316406 399.171875 C 210.316406 398.941406 210.546875 398.785156 210.703125 398.785156 C 210.9375 398.785156 211.089844 398.941406 211.167969 399.09375 L 218.460938 425.890625 C 218.460938 426.046875 218.617188 426.046875 218.695312 426.046875 C 218.773438 426.046875 218.851562 426.046875 218.851562 425.890625 L 224.746094 396.765625 C 224.824219 396.53125 224.980469 396.375 225.210938 396.375 C 225.445312 396.375 225.601562 396.53125 225.679688 396.765625 L 231.886719 430.085938 C 231.886719 430.242188 232.039062 430.242188 232.039062 430.242188 C 232.117188 430.242188 232.195312 430.242188 232.273438 430.085938 L 238.636719 405.230469 C 238.714844 404.996094 238.789062 404.84375 239.101562 404.921875 C 239.332031 404.921875 239.488281 405.074219 239.488281 405.308594 L 242.359375 420.222656 L 247.945312 386.125 C 247.945312 385.890625 248.179688 385.734375 248.332031 385.734375 C 248.566406 385.65625 248.722656 385.890625 248.800781 386.046875 L 261.523438 433.96875 L 270.914062 410.125 C 270.988281 409.890625 271.300781 409.8125 271.457031 409.890625 C 271.6875 409.96875 271.765625 410.28125 271.6875 410.433594 L 261.757812 435.523438 C 261.679688 435.679688 261.523438 435.832031 261.292969 435.832031 C 261.136719 435.832031 260.902344 435.679688 260.902344 435.523438 L 248.644531 388.296875 L 242.980469 422.785156 C 242.980469 423.019531 242.746094 423.171875 242.515625 423.171875 C 242.28125 423.171875 242.125 423.019531 242.050781 422.785156 L 239.101562 407.40625 L 233.203125 430.320312 C 233.050781 430.863281 232.660156 431.097656 232.117188 431.171875 C 231.574219 431.171875 231.1875 430.785156 231.109375 430.242188 L 225.289062 399.171875 L 219.859375 426.046875 C 219.78125 426.589844 219.316406 426.902344 218.851562 426.902344 C 218.386719 426.902344 217.917969 426.589844 217.765625 426.125 L 211.015625 401.347656 L 205.273438 438.785156 C 205.195312 439.328125 204.808594 439.640625 204.265625 439.71875 C 204.1875 439.796875 204.1875 439.796875 204.109375 439.796875 Z M 204.109375 439.796875 " fill-opacity="1" fill-rule="nonzero"/></g></g><g clip-path="url(#4022a56e1c)"><g clip-path="url(#d50f94e615)"><path fill="#e8f2f8" d="M 256.171875 415.328125 C 256.09375 415.328125 256.09375 415.328125 256.015625 415.328125 C 255.78125 415.25 255.628906 415.019531 255.703125 414.785156 L 264.316406 388.296875 C 264.394531 388.144531 264.550781 387.988281 264.703125 387.988281 C 264.859375 387.988281 265.09375 388.066406 265.171875 388.222656 L 272.929688 402.902344 C 273.007812 403.132812 272.929688 403.367188 272.773438 403.523438 C 272.542969 403.601562 272.308594 403.523438 272.152344 403.367188 L 264.859375 389.617188 L 256.558594 415.09375 C 256.558594 415.25 256.402344 415.328125 256.171875 415.328125 Z M 256.171875 415.328125 " fill-opacity="1" fill-rule="nonzero"/></g></g><path fill="#e4eef4" d="M 358.355469 353.5 L 358.355469 352.257812 C 358.355469 349.386719 356.027344 346.976562 353.078125 346.976562 L 330.421875 346.976562 C 327.550781 346.976562 325.144531 349.308594 325.144531 352.257812 L 325.144531 451.136719 C 325.144531 454.085938 327.550781 456.496094 330.5 456.496094 L 434.855469 456.496094 C 437.804688 456.496094 440.210938 454.085938 440.210938 451.136719 L 440.210938 358.9375 C 440.210938 355.988281 437.804688 353.578125 434.855469 353.578125 L 358.355469 353.578125 Z M 358.355469 353.5 " fill-opacity="1" fill-rule="nonzero"/><path fill="#a5c6d3" d="M 434.855469 457.347656 L 330.578125 457.347656 C 327.164062 457.347656 324.371094 454.550781 324.371094 451.136719 L 324.371094 352.335938 C 324.371094 348.996094 327.085938 346.277344 330.421875 346.277344 L 353.078125 346.277344 C 356.414062 346.277344 359.128906 348.996094 359.128906 352.335938 L 359.128906 352.800781 L 434.855469 352.800781 C 438.269531 352.800781 441.0625 355.597656 441.0625 359.015625 L 441.0625 451.289062 C 440.984375 454.550781 438.269531 457.347656 434.855469 457.347656 Z M 330.421875 347.832031 C 327.941406 347.832031 326 349.851562 326 352.257812 L 326 451.136719 C 326 453.699219 328.09375 455.71875 330.578125 455.71875 L 434.855469 455.71875 C 437.417969 455.71875 439.433594 453.621094 439.433594 451.136719 L 439.433594 358.9375 C 439.433594 356.375 437.339844 354.355469 434.855469 354.355469 L 357.65625 354.355469 L 357.65625 352.335938 C 357.65625 349.851562 355.636719 347.910156 353.234375 347.910156 L 330.421875 347.910156 Z M 330.421875 347.832031 " fill-opacity="1" fill-rule="nonzero"/><path fill="#e05353" d="M 416.078125 380.6875 L 408.863281 389.152344 C 411.347656 393.503906 412.742188 398.550781 412.742188 403.988281 C 412.742188 420.609375 399.242188 434.125 382.640625 434.125 C 378.761719 434.125 375.035156 433.347656 371.621094 432.027344 L 366.734375 441.503906 C 371.621094 443.601562 376.976562 444.765625 382.640625 444.765625 C 405.140625 444.765625 423.375 426.511719 423.375 403.988281 C 423.449219 395.289062 420.734375 387.289062 416.078125 380.6875 Z M 416.078125 380.6875 " fill-opacity="1" fill-rule="nonzero"/><path fill="#7387dd" d="M 359.984375 384.257812 C 365.492188 377.890625 373.640625 373.851562 382.71875 373.851562 C 392.492188 373.851562 401.183594 378.511719 406.691406 385.734375 L 413.675781 377.503906 C 406.226562 368.726562 395.132812 363.210938 382.71875 363.210938 C 370.378906 363.210938 359.363281 368.726562 351.914062 377.347656 Z M 359.984375 384.257812 " fill-opacity="1" fill-rule="nonzero"/><path fill="#fda345" d="M 368.128906 430.320312 C 358.898438 425.191406 352.613281 415.328125 352.613281 403.988281 C 352.613281 397.851562 354.476562 392.105469 357.65625 387.367188 L 349.507812 380.453125 C 344.777344 387.132812 341.984375 395.210938 341.984375 403.988281 C 341.984375 419.445312 350.59375 432.882812 363.242188 439.796875 Z M 368.128906 430.320312 " fill-opacity="1" fill-rule="nonzero"/><path fill="#fda345" d="M 157.089844 489.816406 L 267.34375 489.816406 L 267.34375 535.488281 L 157.089844 535.488281 Z M 157.089844 489.816406 " fill-opacity="1" fill-rule="nonzero"/><path fill="#ffffff" d="M 256.792969 503.484375 L 166.867188 503.484375 C 166.554688 503.484375 166.246094 503.253906 166.246094 502.863281 C 166.246094 502.554688 166.476562 502.242188 166.867188 502.242188 L 256.714844 502.242188 C 257.023438 502.242188 257.335938 502.476562 257.335938 502.863281 C 257.335938 503.253906 257.101562 503.484375 256.792969 503.484375 Z M 256.792969 503.484375 " fill-opacity="1" fill-rule="nonzero"/><path fill="#ffffff" d="M 256.792969 513.195312 L 166.867188 513.195312 C 166.554688 513.195312 166.246094 512.960938 166.246094 512.574219 C 166.246094 512.261719 166.476562 511.953125 166.867188 511.953125 L 256.714844 511.953125 C 257.023438 511.953125 257.335938 512.183594 257.335938 512.574219 C 257.335938 512.960938 257.101562 513.195312 256.792969 513.195312 Z M 256.792969 513.195312 " fill-opacity="1" fill-rule="nonzero"/><path fill="#ffffff" d="M 236.386719 522.902344 L 166.867188 522.902344 C 166.554688 522.902344 166.246094 522.671875 166.246094 522.28125 C 166.246094 521.972656 166.476562 521.660156 166.867188 521.660156 L 236.386719 521.660156 C 236.695312 521.660156 237.007812 521.894531 237.007812 522.28125 C 237.007812 522.671875 236.695312 522.902344 236.386719 522.902344 Z M 236.386719 522.902344 " fill-opacity="1" fill-rule="nonzero"/><path fill="#e05353" d="M 278.980469 481.347656 L 241.195312 481.347656 C 239.257812 481.347656 237.703125 482.902344 237.703125 484.84375 L 237.703125 505.425781 C 237.703125 507.371094 239.257812 508.921875 241.195312 508.921875 L 278.980469 508.921875 C 280.921875 508.921875 282.472656 507.371094 282.472656 505.425781 L 282.472656 484.84375 C 282.472656 482.980469 280.921875 481.347656 278.980469 481.347656 Z M 278.980469 481.347656 " fill-opacity="1" fill-rule="nonzero"/><path fill="#e05353" d="M 278.050781 481.347656 L 242.050781 481.347656 C 239.644531 481.347656 237.625 483.292969 237.625 485.777344 L 237.625 486.320312 L 260.050781 497.039062 L 282.472656 486.320312 L 282.472656 485.777344 C 282.472656 483.367188 280.457031 481.347656 278.050781 481.347656 Z M 278.050781 481.347656 " fill-opacity="0.62" fill-rule="nonzero"/><path fill="#e4eef4" d="M 359.285156 463.875 L 426.242188 463.875 L 426.242188 470.554688 L 359.285156 470.554688 Z M 359.285156 463.875 " fill-opacity="1" fill-rule="nonzero"/><path fill="#e4eef4" d="M 355.25 467.214844 C 355.25 465.039062 353.464844 463.25 351.292969 463.25 C 349.121094 463.25 347.335938 465.039062 347.335938 467.214844 C 347.335938 469.386719 349.121094 471.175781 351.292969 471.175781 C 353.464844 471.253906 355.25 469.464844 355.25 467.214844 Z M 355.25 467.214844 " fill-opacity="1" fill-rule="nonzero"/><path fill="#e4eef4" d="M 359.285156 477.234375 L 426.242188 477.234375 L 426.242188 483.914062 L 359.285156 483.914062 Z M 359.285156 477.234375 " fill-opacity="1" fill-rule="nonzero"/><path fill="#e4eef4" d="M 355.25 480.648438 C 355.25 478.476562 353.464844 476.6875 351.292969 476.6875 C 349.121094 476.6875 347.335938 478.476562 347.335938 480.648438 C 347.335938 482.824219 349.121094 484.613281 351.292969 484.613281 C 353.464844 484.613281 355.25 482.824219 355.25 480.648438 Z M 355.25 480.648438 " fill-opacity="1" fill-rule="nonzero"/><path fill="#ff90c8" d="M 355.949219 520.496094 L 345.085938 520.496094 C 344 520.496094 343.148438 521.351562 343.148438 522.4375 L 343.148438 541.15625 L 357.964844 541.15625 L 357.964844 522.4375 C 357.886719 521.429688 357.035156 520.496094 355.949219 520.496094 Z M 355.949219 520.496094 " fill-opacity="1" fill-rule="nonzero"/><path fill="#79154d" d="M 363.085938 541.234375 L 363.085938 517.855469 C 363.085938 516.535156 364.171875 515.371094 365.570312 515.371094 L 375.421875 515.371094 C 376.820312 515.371094 377.90625 516.457031 377.90625 517.855469 L 377.90625 541.234375 Z M 363.085938 541.234375 " fill-opacity="1" fill-rule="nonzero"/><path fill="#ff90c8" d="M 383.804688 541.234375 L 383.804688 510.476562 C 383.804688 509.078125 384.890625 507.992188 386.285156 507.992188 L 396.140625 507.992188 C 397.535156 507.992188 398.621094 509.078125 398.621094 510.476562 L 398.621094 541.234375 Z M 383.804688 541.234375 " fill-opacity="1" fill-rule="nonzero"/><path fill="#79154d" d="M 405.0625 541.234375 L 405.0625 501.234375 C 405.0625 499.835938 406.148438 498.746094 407.546875 498.746094 L 417.398438 498.746094 C 418.796875 498.746094 419.882812 499.835938 419.882812 501.234375 L 419.882812 541.234375 Z M 405.0625 541.234375 " fill-opacity="1" fill-rule="nonzero"/><path fill="#cde0e8" d="M 423.21875 541.855469 L 339.191406 541.855469 C 338.878906 541.855469 338.570312 541.621094 338.570312 541.234375 C 338.570312 540.921875 338.800781 540.613281 339.191406 540.613281 L 423.21875 540.613281 C 423.527344 540.613281 423.839844 540.847656 423.839844 541.234375 C 423.839844 541.546875 423.527344 541.855469 423.21875 541.855469 Z M 423.21875 541.855469 " fill-opacity="1" fill-rule="nonzero"/></svg>