<svg xmlns="http://www.w3.org/2000/svg" xmlns:xlink="http://www.w3.org/1999/xlink" width="1080" zoomAndPan="magnify" viewBox="0 0 810 809.999993" height="1080" preserveAspectRatio="xMidYMid meet" version="1.0"><defs><clipPath id="0f49ea9b01"><path d="M 81 161.191406 L 448 161.191406 L 448 528 L 81 528 Z M 81 161.191406 " clip-rule="nonzero"/></clipPath><clipPath id="56cf3da176"><path d="M 681.183594 358.214844 L 728.453125 358.214844 L 728.453125 467.988281 L 681.183594 467.988281 Z M 681.183594 358.214844 " clip-rule="nonzero"/></clipPath><clipPath id="4bce8bf938"><path d="M 81.515625 639.683594 L 719 639.683594 L 719 648.648438 L 81.515625 648.648438 Z M 81.515625 639.683594 " clip-rule="nonzero"/></clipPath></defs><g clip-path="url(#0f49ea9b01)"><path fill="#f4f4f4" d="M 316.878906 512.5 C 338.960938 499.339844 357.933594 478.097656 371.882812 451.484375 C 398.5 437.542969 419.75 418.574219 432.914062 396.5 C 415.738281 451.695312 372.089844 495.332031 316.878906 512.5 Z M 96.398438 396.5 C 109.5625 418.574219 130.8125 437.542969 157.425781 451.484375 C 171.378906 478.097656 190.347656 499.339844 212.425781 512.5 C 157.21875 495.339844 113.570312 451.695312 96.398438 396.5 Z M 212.429688 176.066406 C 190.347656 189.230469 171.378906 210.472656 157.425781 237.085938 C 130.8125 251.035156 109.5625 270 96.398438 292.070312 C 113.570312 236.878906 157.222656 193.234375 212.429688 176.066406 Z M 395.109375 375.273438 C 396.355469 365.191406 397.042969 354.851562 397.042969 344.285156 C 397.042969 333.71875 396.355469 323.378906 395.109375 313.296875 C 424.1875 322.054688 440.820312 333.355469 440.820312 344.285156 C 440.820312 355.21875 424.1875 366.519531 395.109375 375.273438 Z M 394.109375 382.609375 C 414.171875 376.890625 430.046875 369.695312 439.175781 361.175781 C 433.121094 393.007812 410.261719 421.089844 377.132812 440.699219 C 385.058594 423.097656 390.875 403.515625 394.109375 382.609375 Z M 304.972656 466.316406 C 310.21875 445.734375 314.023438 421.453125 316.214844 395.835938 C 341.84375 393.648438 366.125 389.84375 386.71875 384.597656 C 382.941406 407.164062 376.066406 428.054688 366.757812 446.367188 C 348.445312 455.667969 327.546875 462.539062 304.972656 466.316406 Z M 302.988281 473.707031 C 323.894531 470.472656 343.480469 464.65625 361.09375 456.734375 C 341.480469 489.855469 313.386719 512.714844 281.550781 518.761719 C 290.066406 509.636719 297.269531 493.769531 302.988281 473.707031 Z M 233.65625 474.710938 C 243.742188 475.960938 254.089844 476.648438 264.652344 476.648438 C 275.21875 476.648438 285.570312 475.960938 295.648438 474.710938 C 286.894531 503.777344 275.589844 520.40625 264.652344 520.40625 C 253.71875 520.40625 242.414062 503.777344 233.65625 474.710938 Z M 226.320312 473.707031 C 232.039062 493.769531 239.242188 509.636719 247.761719 518.761719 C 215.921875 512.714844 187.835938 489.855469 168.214844 456.742188 C 185.828125 464.65625 205.414062 470.472656 226.320312 473.707031 Z M 142.597656 384.597656 C 163.183594 389.84375 187.464844 393.648438 213.097656 395.835938 C 215.285156 421.453125 219.085938 445.734375 224.328125 466.316406 C 201.761719 462.539062 180.863281 455.667969 162.550781 446.367188 C 153.242188 428.054688 146.375 407.164062 142.597656 384.597656 Z M 135.207031 382.613281 C 138.433594 403.515625 144.257812 423.097656 152.175781 440.699219 C 119.046875 421.089844 96.1875 393.007812 90.140625 361.175781 C 99.261719 369.695312 115.136719 376.898438 135.207031 382.613281 Z M 134.199219 313.296875 C 132.953125 323.378906 132.265625 333.71875 132.265625 344.285156 C 132.265625 354.851562 132.953125 365.191406 134.199219 375.273438 C 105.125 366.519531 88.496094 355.21875 88.496094 344.285156 C 88.496094 333.355469 105.125 322.054688 134.199219 313.296875 Z M 135.207031 305.964844 C 115.136719 311.679688 99.261719 318.882812 90.140625 327.398438 C 96.1875 295.5625 119.046875 267.480469 152.175781 247.871094 C 144.257812 265.476562 138.433594 285.0625 135.207031 305.964844 Z M 224.328125 222.253906 C 219.085938 242.84375 215.285156 267.121094 213.097656 292.738281 C 187.464844 294.925781 163.183594 298.730469 142.589844 303.972656 C 146.375 281.414062 153.242188 260.515625 162.550781 242.210938 C 180.863281 232.902344 201.761719 226.03125 224.328125 222.253906 Z M 226.320312 214.867188 C 205.414062 218.097656 185.824219 223.914062 168.214844 231.835938 C 187.828125 198.714844 215.921875 175.855469 247.761719 169.808594 C 239.242188 178.929688 232.039062 194.800781 226.320312 214.867188 Z M 295.648438 213.867188 C 285.570312 212.613281 275.21875 211.929688 264.652344 211.929688 C 254.089844 211.929688 243.742188 212.613281 233.65625 213.867188 C 242.414062 184.796875 253.71875 168.167969 264.652344 168.167969 C 275.589844 168.167969 286.894531 184.796875 295.648438 213.867188 Z M 302.988281 214.867188 C 297.269531 194.800781 290.066406 178.929688 281.550781 169.808594 C 313.386719 175.855469 341.480469 198.714844 361.09375 231.835938 C 343.488281 223.914062 323.894531 218.097656 302.988281 214.867188 Z M 219.992188 292.199219 C 222.3125 264.476562 226.402344 240.460938 231.582031 221.148438 C 242.300781 219.691406 253.347656 218.902344 264.652344 218.902344 C 275.960938 218.902344 287.007812 219.691406 297.726562 221.148438 C 302.90625 240.460938 306.996094 264.476562 309.3125 292.199219 C 294.636719 291.117188 279.601562 290.550781 264.652344 290.550781 C 249.699219 290.550781 234.671875 291.117188 219.992188 292.199219 Z M 139.242188 344.285156 C 139.242188 332.984375 140.035156 321.9375 141.484375 311.226562 C 160.808594 306.046875 184.820312 301.957031 212.550781 299.636719 C 211.472656 314.3125 210.90625 329.339844 210.90625 344.285156 C 210.90625 359.234375 211.472656 374.257812 212.550781 388.9375 C 184.820312 386.621094 160.808594 382.527344 141.484375 377.351562 C 140.035156 366.632812 139.242188 355.589844 139.242188 344.285156 Z M 309.3125 396.378906 C 306.996094 424.097656 302.902344 448.109375 297.726562 467.421875 C 287.003906 468.878906 275.960938 469.671875 264.652344 469.671875 C 253.347656 469.671875 242.300781 468.878906 231.582031 467.421875 C 226.402344 448.109375 222.3125 424.097656 219.992188 396.378906 C 234.671875 397.457031 249.699219 398.023438 264.652344 398.023438 C 279.601562 398.023438 294.632812 397.457031 309.3125 396.378906 Z M 264.652344 391.046875 C 248.753906 391.046875 233.65625 390.492188 219.453125 389.476562 C 218.441406 375.273438 217.878906 360.183594 217.878906 344.285156 C 217.878906 328.386719 218.441406 313.292969 219.453125 299.097656 C 233.65625 298.085938 248.753906 297.523438 264.652344 297.523438 C 280.554688 297.523438 295.652344 298.085938 309.855469 299.097656 C 310.867188 313.292969 311.429688 328.386719 311.429688 344.285156 C 311.429688 360.183594 310.867188 375.273438 309.855469 389.476562 C 295.652344 390.492188 280.554688 391.046875 264.652344 391.046875 Z M 390.070312 344.285156 C 390.070312 355.589844 389.28125 366.632812 387.824219 377.351562 C 368.5 382.527344 344.488281 386.621094 316.757812 388.9375 C 317.835938 374.257812 318.402344 359.234375 318.402344 344.285156 C 318.402344 329.339844 317.835938 314.3125 316.757812 299.636719 C 344.488281 301.957031 368.5 306.046875 387.824219 311.226562 C 389.28125 321.9375 390.070312 332.984375 390.070312 344.285156 Z M 377.132812 247.871094 C 410.261719 267.480469 433.121094 295.5625 439.175781 327.398438 C 430.046875 318.882812 414.171875 311.679688 394.109375 305.964844 C 390.875 285.0625 385.058594 265.476562 377.132812 247.871094 Z M 386.71875 303.972656 C 366.125 298.730469 341.84375 294.925781 316.214844 292.738281 C 314.023438 267.121094 310.21875 242.84375 304.972656 222.253906 C 327.546875 226.03125 348.445312 232.902344 366.757812 242.210938 C 376.066406 260.515625 382.941406 281.414062 386.71875 303.972656 Z M 432.914062 292.078125 C 419.75 270 398.5 251.035156 371.882812 237.085938 C 357.933594 210.472656 338.960938 189.230469 316.878906 176.066406 C 372.089844 193.234375 415.738281 236.878906 432.914062 292.078125 Z M 264.652344 161.191406 C 163.671875 161.191406 81.515625 243.328125 81.515625 344.285156 C 81.515625 445.246094 163.671875 527.375 264.652344 527.375 C 365.636719 527.375 447.792969 445.246094 447.792969 344.285156 C 447.792969 243.328125 365.636719 161.191406 264.652344 161.191406 " fill-opacity="1" fill-rule="nonzero"/></g><path fill="#9dc7f9" d="M 610.328125 529.585938 L 271.339844 529.585938 C 267.652344 529.585938 264.675781 526.601562 264.675781 522.925781 L 264.675781 285.105469 C 264.675781 281.421875 267.652344 278.445312 271.339844 278.445312 L 610.328125 278.445312 C 614.007812 278.445312 616.992188 281.421875 616.992188 285.105469 L 616.992188 522.925781 C 616.992188 526.601562 614.007812 529.585938 610.328125 529.585938 " fill-opacity="1" fill-rule="nonzero"/><path fill="#9dc7f9" d="M 610.324219 278.445312 L 271.074219 278.445312 C 267.390625 278.445312 264.40625 281.367188 264.40625 284.976562 L 264.40625 302.625 L 616.992188 302.625 L 616.992188 284.976562 C 616.992188 281.367188 614.007812 278.445312 610.324219 278.445312 " fill-opacity="1" fill-rule="nonzero"/><path fill="#ffffff" d="M 283.039062 290.699219 C 283.039062 293.925781 280.425781 296.535156 277.199219 296.535156 C 273.976562 296.535156 271.367188 293.925781 271.367188 290.699219 C 271.367188 287.476562 273.976562 284.863281 277.199219 284.863281 C 280.425781 284.863281 283.039062 287.476562 283.039062 290.699219 " fill-opacity="1" fill-rule="nonzero"/><path fill="#ffcc4d" d="M 300.933594 290.699219 C 300.933594 293.925781 298.320312 296.535156 295.097656 296.535156 C 291.871094 296.535156 289.257812 293.925781 289.257812 290.699219 C 289.257812 287.476562 291.871094 284.863281 295.097656 284.863281 C 298.320312 284.863281 300.933594 287.476562 300.933594 290.699219 " fill-opacity="1" fill-rule="nonzero"/><path fill="#f54553" d="M 319.289062 290.699219 C 319.289062 293.925781 316.675781 296.535156 313.453125 296.535156 C 310.230469 296.535156 307.613281 293.925781 307.613281 290.699219 C 307.613281 287.476562 310.230469 284.863281 313.453125 284.863281 C 316.675781 284.863281 319.289062 287.476562 319.289062 290.699219 " fill-opacity="1" fill-rule="nonzero"/><path fill="#254799" d="M 616.992188 352.570312 L 264.675781 352.570312 L 264.675781 302.625 L 616.992188 302.625 L 616.992188 352.570312 " fill-opacity="1" fill-rule="nonzero"/><path fill="#ffcc4d" d="M 510.640625 336.347656 L 371.023438 336.347656 C 369.035156 336.347656 367.417969 334.730469 367.417969 332.742188 L 367.417969 322.457031 C 367.417969 320.464844 369.035156 318.851562 371.023438 318.851562 L 510.640625 318.851562 C 512.632812 318.851562 514.242188 320.464844 514.242188 322.457031 L 514.242188 332.742188 C 514.242188 334.730469 512.632812 336.347656 510.640625 336.347656 " fill-opacity="1" fill-rule="nonzero"/><path fill="#346ee3" d="M 486.894531 382.410156 L 394.769531 382.410156 C 392.777344 382.410156 391.160156 380.800781 391.160156 378.804688 L 391.160156 368.519531 C 391.160156 366.527344 392.777344 364.914062 394.769531 364.914062 L 486.894531 364.914062 C 488.882812 364.914062 490.5 366.527344 490.5 368.519531 L 490.5 378.804688 C 490.5 380.800781 488.882812 382.410156 486.894531 382.410156 " fill-opacity="1" fill-rule="nonzero"/><path fill="#346ee3" d="M 602.570312 407.847656 L 510.34375 407.847656 C 508.375 407.847656 506.789062 406.253906 506.789062 404.289062 L 506.789062 395.105469 C 506.789062 393.140625 508.375 391.546875 510.34375 391.546875 L 602.570312 391.546875 C 604.53125 391.546875 606.128906 393.140625 606.128906 395.105469 L 606.128906 404.289062 C 606.128906 406.253906 604.53125 407.847656 602.570312 407.847656 " fill-opacity="1" fill-rule="nonzero"/><path fill="#346ee3" d="M 487.5 482.617188 L 394.164062 482.617188 C 392.507812 482.617188 391.160156 481.269531 391.160156 479.617188 L 391.160156 476.867188 C 391.160156 475.210938 392.507812 473.863281 394.164062 473.863281 L 487.5 473.863281 C 489.160156 473.863281 490.5 475.210938 490.5 476.867188 L 490.5 479.617188 C 490.5 481.269531 489.160156 482.617188 487.5 482.617188 " fill-opacity="1" fill-rule="nonzero"/><path fill="#ffffff" d="M 486.789062 521.03125 L 394.871094 521.03125 C 392.820312 521.03125 391.160156 519.371094 391.160156 517.320312 L 391.160156 492.40625 C 391.160156 490.363281 392.820312 488.703125 394.871094 488.703125 L 486.789062 488.703125 C 488.839844 488.703125 490.5 490.363281 490.5 492.40625 L 490.5 517.320312 C 490.5 519.371094 488.839844 521.03125 486.789062 521.03125 " fill-opacity="1" fill-rule="nonzero"/><path fill="#ffffff" d="M 363.710938 461.886719 L 279.246094 461.886719 C 277.199219 461.886719 275.539062 460.226562 275.539062 458.179688 L 275.539062 395.257812 C 275.539062 393.207031 277.199219 391.546875 279.246094 391.546875 L 363.710938 391.546875 C 365.757812 391.546875 367.417969 393.207031 367.417969 395.257812 L 367.417969 458.179688 C 367.417969 460.226562 365.757812 461.886719 363.710938 461.886719 " fill-opacity="1" fill-rule="nonzero"/><path fill="#ffffff" d="M 363.710938 521.03125 L 279.246094 521.03125 C 277.199219 521.03125 275.539062 519.371094 275.539062 517.320312 L 275.539062 477.574219 C 275.539062 475.527344 277.199219 473.863281 279.246094 473.863281 L 363.710938 473.863281 C 365.757812 473.863281 367.417969 475.527344 367.417969 477.574219 L 367.417969 517.320312 C 367.417969 519.371094 365.757812 521.03125 363.710938 521.03125 " fill-opacity="1" fill-rule="nonzero"/><path fill="#ffffff" d="M 602.414062 521.03125 L 510.492188 521.03125 C 508.449219 521.03125 506.789062 519.371094 506.789062 517.320312 L 506.789062 477.574219 C 506.789062 475.527344 508.449219 473.863281 510.492188 473.863281 L 602.414062 473.863281 C 604.46875 473.863281 606.128906 475.527344 606.128906 477.574219 L 606.128906 517.320312 C 606.128906 519.371094 604.46875 521.03125 602.414062 521.03125 " fill-opacity="1" fill-rule="nonzero"/><path fill="#ffffff" d="M 486.789062 461.886719 L 394.871094 461.886719 C 392.820312 461.886719 391.160156 460.226562 391.160156 458.179688 L 391.160156 395.257812 C 391.160156 393.207031 392.820312 391.546875 394.871094 391.546875 L 486.789062 391.546875 C 488.839844 391.546875 490.5 393.207031 490.5 395.257812 L 490.5 458.179688 C 490.5 460.226562 488.839844 461.886719 486.789062 461.886719 " fill-opacity="1" fill-rule="nonzero"/><path fill="#346ee3" d="M 391.160156 431.578125 L 418.90625 412.355469 L 449.546875 435.480469 L 470.78125 423.914062 L 490.5 435.480469 L 490.5 458.179688 C 490.5 460.226562 488.839844 461.886719 486.789062 461.886719 L 394.871094 461.886719 C 392.820312 461.886719 391.160156 460.226562 391.160156 458.179688 L 391.160156 431.578125 " fill-opacity="1" fill-rule="nonzero"/><path fill="#346ee3" d="M 457.367188 417.210938 C 457.367188 420.355469 454.8125 422.90625 451.667969 422.90625 C 448.523438 422.90625 445.972656 420.355469 445.972656 417.210938 C 445.972656 414.066406 448.523438 411.515625 451.667969 411.515625 C 454.8125 411.515625 457.367188 414.066406 457.367188 417.210938 " fill-opacity="1" fill-rule="nonzero"/><path fill="#ffffff" d="M 585.386719 461.886719 L 527.527344 461.886719 C 525.632812 461.886719 524.097656 460.351562 524.097656 458.460938 L 524.097656 420.632812 C 524.097656 418.742188 525.632812 417.210938 527.527344 417.210938 L 585.386719 417.210938 C 587.277344 417.210938 588.816406 418.742188 588.816406 420.632812 L 588.816406 458.460938 C 588.816406 460.351562 587.277344 461.886719 585.386719 461.886719 " fill-opacity="1" fill-rule="nonzero"/><path fill="#346ee3" d="M 549.167969 439.46875 L 557.628906 440.726562 L 556.429688 447.121094 L 548.308594 444.023438 Z M 540.660156 438.210938 L 547.015625 439.15625 L 546.253906 443.238281 L 540.660156 441.105469 Z M 550.640625 431.605469 L 559.339844 431.605469 L 558.03125 438.597656 L 549.5625 437.339844 Z M 547.417969 437.023438 L 540.660156 436.015625 L 540.660156 431.605469 L 548.433594 431.605469 Z M 564.875 450.34375 L 558.488281 447.90625 L 559.773438 441.046875 L 566.800781 442.089844 Z M 567.296875 439.972656 L 560.175781 438.917969 L 561.542969 431.605469 L 569.246094 431.605469 Z M 576.691406 420.59375 C 575.558594 420.59375 574.652344 421.492188 574.609375 422.613281 L 570.863281 424.691406 L 569.757812 429.441406 L 539.578125 429.441406 C 538.976562 429.441406 538.492188 429.925781 538.492188 430.523438 L 538.492188 441.855469 C 538.492188 441.859375 538.492188 441.863281 538.492188 441.871094 C 538.5 441.957031 538.527344 442.039062 538.546875 442.125 C 538.558594 442.179688 538.558594 442.234375 538.582031 442.289062 C 538.609375 442.347656 538.660156 442.398438 538.695312 442.453125 C 538.734375 442.511719 538.769531 442.574219 538.816406 442.628906 C 538.851562 442.660156 538.898438 442.679688 538.933594 442.707031 C 539.011719 442.761719 539.085938 442.820312 539.175781 442.855469 C 539.179688 442.859375 539.1875 442.867188 539.191406 442.867188 L 561.933594 451.539062 L 537.816406 451.429688 C 537.21875 451.429688 536.734375 451.914062 536.734375 452.511719 C 536.734375 453.113281 537.21875 453.597656 537.816406 453.597656 L 540.054688 453.597656 C 539.613281 454.117188 539.316406 454.773438 539.316406 455.507812 C 539.316406 457.160156 540.660156 458.5 542.316406 458.5 C 543.964844 458.5 545.304688 457.160156 545.304688 455.507812 C 545.304688 454.773438 545.007812 454.117188 544.570312 453.597656 L 557.992188 453.597656 C 557.550781 454.117188 557.253906 454.773438 557.253906 455.507812 C 557.253906 457.160156 558.597656 458.5 560.25 458.5 C 561.902344 458.5 563.242188 457.160156 563.242188 455.507812 C 563.242188 454.773438 562.945312 454.117188 562.507812 453.597656 L 564.746094 453.597656 C 565.617188 453.597656 566.359375 453.03125 566.628906 452.222656 C 566.640625 452.207031 566.65625 452.199219 566.664062 452.183594 C 566.667969 452.160156 566.667969 452.140625 566.675781 452.121094 C 566.679688 452.089844 566.703125 452.066406 566.707031 452.039062 L 572.753906 426.121094 L 575.675781 424.5 C 575.984375 424.675781 576.320312 424.796875 576.691406 424.796875 C 577.851562 424.796875 578.792969 423.855469 578.792969 422.695312 C 578.792969 421.535156 577.851562 420.59375 576.691406 420.59375 " fill-opacity="1" fill-rule="nonzero"/><path fill="#254799" d="M 694.992188 525.234375 L 695.015625 525.234375 Z M 681.503906 538.761719 Z M 565.488281 620.707031 C 565.488281 619.695312 566.304688 618.875 567.316406 618.875 L 659.171875 618.875 L 677.929688 537.941406 C 678.066406 537.347656 678.363281 536.804688 678.804688 536.359375 L 692.703125 522.523438 C 693.320312 521.90625 694.140625 521.566406 695.015625 521.566406 L 703.21875 521.566406 C 704.222656 521.566406 705.050781 522.390625 705.050781 523.402344 C 705.050781 524.414062 704.222656 525.234375 703.21875 525.234375 L 695.179688 525.234375 L 681.476562 538.867188 L 662.671875 620.011719 C 662.324219 621.503906 661.015625 622.535156 659.488281 622.535156 L 567.316406 622.535156 C 566.304688 622.535156 565.488281 621.71875 565.488281 620.707031 " fill-opacity="1" fill-rule="nonzero"/><path fill="#254799" d="M 547.566406 539.488281 L 680.101562 539.488281 C 681.113281 539.488281 681.933594 538.664062 681.933594 537.65625 C 681.933594 536.640625 681.113281 535.820312 680.101562 535.820312 L 547.566406 535.820312 C 546.554688 535.820312 545.734375 536.640625 545.734375 537.65625 C 545.734375 538.664062 546.554688 539.488281 547.566406 539.488281 " fill-opacity="1" fill-rule="nonzero"/><path fill="#254799" d="M 556.105469 563.472656 L 674.316406 563.472656 C 675.328125 563.472656 676.148438 562.652344 676.148438 561.640625 C 676.148438 560.628906 675.328125 559.804688 674.316406 559.804688 L 556.105469 559.804688 C 555.09375 559.804688 554.273438 560.628906 554.273438 561.640625 C 554.273438 562.652344 555.09375 563.472656 556.105469 563.472656 " fill-opacity="1" fill-rule="nonzero"/><path fill="#254799" d="M 559.492188 585.796875 L 669.144531 585.796875 C 670.15625 585.796875 670.972656 584.972656 670.972656 583.960938 C 670.972656 582.949219 670.15625 582.132812 669.144531 582.132812 L 559.492188 582.132812 C 558.480469 582.132812 557.660156 582.949219 557.660156 583.960938 C 557.660156 584.972656 558.480469 585.796875 559.492188 585.796875 " fill-opacity="1" fill-rule="nonzero"/><path fill="#254799" d="M 563.65625 607.875 C 563.859375 607.875 564.066406 607.84375 564.269531 607.769531 C 565.222656 607.429688 565.71875 606.386719 565.382812 605.429688 L 549.292969 537.042969 C 548.953125 536.085938 547.90625 535.578125 546.949219 535.929688 C 546 536.265625 545.5 537.316406 545.839844 538.265625 L 561.929688 606.65625 C 562.191406 607.40625 562.902344 607.875 563.65625 607.875 " fill-opacity="1" fill-rule="nonzero"/><path fill="#254799" d="M 563.753906 608.121094 L 663.96875 608.121094 C 664.980469 608.121094 665.800781 607.296875 665.800781 606.285156 C 665.800781 605.28125 664.980469 604.457031 663.96875 604.457031 L 563.753906 604.457031 C 562.742188 604.457031 561.921875 605.28125 561.921875 606.285156 C 561.921875 607.296875 562.742188 608.121094 563.753906 608.121094 " fill-opacity="1" fill-rule="nonzero"/><path fill="#254799" d="M 633.859375 608.121094 C 634.710938 608.121094 635.46875 607.523438 635.648438 606.660156 L 649.914062 538.023438 C 650.121094 537.035156 649.484375 536.066406 648.496094 535.859375 C 647.511719 535.65625 646.539062 536.292969 646.328125 537.28125 L 632.066406 605.917969 C 631.863281 606.90625 632.492188 607.875 633.484375 608.085938 C 633.609375 608.105469 633.738281 608.121094 633.859375 608.121094 " fill-opacity="1" fill-rule="nonzero"/><path fill="#254799" d="M 594.136719 608.121094 C 594.25 608.121094 594.359375 608.113281 594.476562 608.089844 C 595.472656 607.902344 596.125 606.945312 595.9375 605.949219 L 583.117188 537.316406 C 582.929688 536.320312 581.964844 535.667969 580.976562 535.855469 C 579.988281 536.039062 579.328125 536.992188 579.515625 537.988281 L 592.335938 606.628906 C 592.507812 607.507812 593.273438 608.121094 594.136719 608.121094 " fill-opacity="1" fill-rule="nonzero"/><path fill="#254799" d="M 640.933594 633.949219 C 640.933594 636.273438 642.824219 638.171875 645.15625 638.171875 C 647.488281 638.171875 649.378906 636.273438 649.378906 633.949219 C 649.378906 631.617188 647.488281 629.722656 645.15625 629.722656 C 642.824219 629.722656 640.933594 631.617188 640.933594 633.949219 Z M 637.265625 633.949219 C 637.265625 629.601562 640.808594 626.058594 645.15625 626.058594 C 649.507812 626.058594 653.046875 629.601562 653.046875 633.949219 C 653.046875 638.296875 649.507812 641.832031 645.15625 641.832031 C 640.808594 641.832031 637.265625 638.296875 637.265625 633.949219 " fill-opacity="1" fill-rule="nonzero"/><path fill="#254799" d="M 697.160156 523.402344 C 697.160156 526.144531 699.386719 528.371094 702.136719 528.371094 C 704.882812 528.371094 707.113281 526.144531 707.113281 523.402344 C 707.113281 520.652344 704.882812 518.425781 702.136719 518.425781 C 699.386719 518.425781 697.160156 520.652344 697.160156 523.402344 " fill-opacity="1" fill-rule="nonzero"/><path fill="#254799" d="M 579.996094 633.949219 C 579.996094 636.273438 581.894531 638.171875 584.21875 638.171875 C 586.550781 638.171875 588.445312 636.273438 588.445312 633.949219 C 588.445312 631.617188 586.550781 629.722656 584.21875 629.722656 C 581.894531 629.722656 579.996094 631.617188 579.996094 633.949219 Z M 576.335938 633.949219 C 576.335938 629.601562 579.871094 626.058594 584.21875 626.058594 C 588.570312 626.058594 592.109375 629.601562 592.109375 633.949219 C 592.109375 638.296875 588.570312 641.832031 584.21875 641.832031 C 579.871094 641.832031 576.335938 638.296875 576.335938 633.949219 " fill-opacity="1" fill-rule="nonzero"/><path fill="#ffcc4d" d="M 646.972656 350.679688 C 647.160156 367.238281 633.886719 380.804688 617.328125 380.992188 C 600.773438 381.179688 587.195312 367.914062 587.007812 351.355469 C 586.820312 334.804688 600.09375 321.230469 616.652344 321.042969 C 633.214844 320.855469 646.785156 334.128906 646.972656 350.679688 " fill-opacity="1" fill-rule="nonzero"/><path fill="#ffffff" d="M 600.207031 349.800781 L 598.605469 358.253906 L 618.105469 369.429688 L 634.417969 341.601562 L 634.335938 333.984375 L 615.960938 356.890625 L 600.207031 349.800781 " fill-opacity="1" fill-rule="nonzero"/><path fill="#346ee3" d="M 317.3125 523.589844 C 316.730469 523.589844 316.257812 523.117188 316.257812 522.535156 C 316.257812 500.476562 309.519531 485.65625 303.230469 485.65625 C 296.941406 485.65625 290.199219 500.476562 290.199219 522.535156 C 290.199219 523.117188 289.730469 523.589844 289.148438 523.589844 C 288.566406 523.589844 288.09375 523.117188 288.09375 522.535156 C 288.09375 500.671875 294.742188 483.546875 303.230469 483.546875 C 311.714844 483.546875 318.363281 500.671875 318.363281 522.535156 C 318.363281 523.117188 317.894531 523.589844 317.3125 523.589844 " fill-opacity="1" fill-rule="nonzero"/><path fill="#f7bf41" d="M 350.644531 641.832031 L 259.136719 641.832031 L 259.136719 514.324219 L 350.644531 514.324219 L 350.644531 641.832031 " fill-opacity="1" fill-rule="nonzero"/><path fill="#ffcc4d" d="M 326.628906 641.832031 L 259.136719 641.832031 L 259.136719 514.324219 L 326.628906 514.324219 L 326.628906 641.832031 " fill-opacity="1" fill-rule="nonzero"/><path fill="#ffcc4d" d="M 326.628906 641.832031 L 337.84375 627.6875 L 350.644531 641.832031 Z M 326.628906 641.832031 " fill-opacity="1" fill-rule="nonzero"/><path fill="#346ee3" d="M 309.410156 523.589844 C 308.828125 523.589844 308.355469 523.117188 308.355469 522.535156 C 308.355469 500.476562 301.613281 485.65625 295.324219 485.65625 C 289.039062 485.65625 282.304688 500.476562 282.304688 522.535156 C 282.304688 523.117188 281.828125 523.589844 281.246094 523.589844 C 280.664062 523.589844 280.191406 523.117188 280.191406 522.535156 C 280.191406 500.671875 286.839844 483.546875 295.324219 483.546875 C 303.8125 483.546875 310.460938 500.671875 310.460938 522.535156 C 310.460938 523.117188 309.996094 523.589844 309.410156 523.589844 " fill-opacity="1" fill-rule="nonzero"/><path fill="#346ee3" d="M 259.226562 567.382812 C 258.691406 567.382812 258.261719 566.945312 258.261719 566.414062 C 258.261719 553.726562 250.355469 543.394531 240.640625 543.394531 C 230.921875 543.394531 223.015625 553.726562 223.015625 566.414062 C 223.015625 566.945312 222.585938 567.382812 222.054688 567.382812 C 221.519531 567.382812 221.085938 566.945312 221.085938 566.414062 C 221.085938 552.660156 229.863281 541.464844 240.640625 541.464844 C 251.417969 541.464844 260.191406 552.660156 260.191406 566.414062 C 260.191406 566.945312 259.757812 567.382812 259.226562 567.382812 " fill-opacity="1" fill-rule="nonzero"/><path fill="#ef354c" d="M 303.230469 641.832031 L 182.433594 641.832031 L 182.433594 561.222656 L 303.230469 561.222656 L 303.230469 641.832031 " fill-opacity="1" fill-rule="nonzero"/><path fill="#f54553" d="M 271.523438 641.832031 L 182.433594 641.832031 L 182.433594 561.222656 L 271.523438 561.222656 L 271.523438 641.832031 " fill-opacity="1" fill-rule="nonzero"/><path fill="#fa5c69" d="M 271.523438 641.832031 L 286.328125 632.886719 L 303.230469 641.832031 Z M 271.523438 641.832031 " fill-opacity="1" fill-rule="nonzero"/><path fill="#346ee3" d="M 248.792969 567.382812 C 248.261719 567.382812 247.832031 566.945312 247.832031 566.414062 C 247.832031 553.726562 239.925781 543.394531 230.207031 543.394531 C 220.492188 543.394531 212.585938 553.726562 212.585938 566.414062 C 212.585938 566.945312 212.148438 567.382812 211.617188 567.382812 C 211.082031 567.382812 210.65625 566.945312 210.65625 566.414062 C 210.65625 552.660156 219.425781 541.464844 230.207031 541.464844 C 240.984375 541.464844 249.761719 552.660156 249.761719 566.414062 C 249.761719 566.945312 249.328125 567.382812 248.792969 567.382812 " fill-opacity="1" fill-rule="nonzero"/><path fill="#ffcc4d" d="M 230.640625 641.820312 C 232.632812 641.820312 233.414062 639.269531 231.78125 638.132812 C 229.222656 636.351562 223.242188 633.507812 214.582031 632.085938 C 212.863281 631.804688 210.917969 630.214844 209.742188 628.523438 C 209.335938 627.933594 208.636719 627.621094 207.921875 627.6875 L 202.011719 628.238281 C 201.042969 628.324219 200.285156 629.085938 200.191406 630.050781 C 199.996094 632.164062 199.847656 636.042969 200.71875 640.269531 C 200.910156 641.1875 201.746094 641.832031 202.6875 641.832031 L 204.714844 641.832031 L 230.640625 641.820312 " fill-opacity="1" fill-rule="nonzero"/><path fill="#ffcc4d" d="M 141.722656 628.953125 C 142.585938 631.652344 143.910156 637.347656 143.007812 640.550781 C 142.792969 641.328125 142.046875 641.820312 141.246094 641.820312 L 130.457031 641.832031 C 129.5 641.832031 128.703125 641.101562 128.601562 640.144531 C 128.0625 635.207031 130.746094 630.773438 131.929688 629.09375 C 132.242188 628.648438 132.730469 628.363281 133.277344 628.308594 L 139.796875 627.703125 C 140.65625 627.628906 141.457031 628.136719 141.722656 628.953125 " fill-opacity="1" fill-rule="nonzero"/><path fill="#f54553" d="M 186.65625 383.898438 C 190.605469 388.175781 204.078125 423.441406 205.453125 427.617188 C 206.8125 433.058594 202.460938 436.472656 195.207031 434.648438 C 190.835938 433.542969 176.621094 399.863281 176.324219 389.722656 C 175.996094 378.402344 182.101562 378.964844 186.65625 383.898438 " fill-opacity="1" fill-rule="nonzero"/><path fill="#1f3b80" d="M 159.847656 506.476562 L 181.242188 563.445312 C 181.242188 563.445312 180.382812 569.894531 181.285156 577.121094 C 182.851562 589.792969 199.300781 631.300781 199.300781 631.300781 C 199.300781 631.300781 205.183594 633.757812 211.859375 629.980469 C 211.859375 629.980469 199.21875 559.707031 198.820312 557.726562 C 198.425781 555.753906 179.664062 457.621094 179.664062 457.621094 L 169.921875 454.410156 L 159.847656 506.476562 " fill-opacity="1" fill-rule="nonzero"/><path fill="#254799" d="M 143.410156 460.089844 C 137.03125 480.09375 134.941406 550.34375 134.414062 554.386719 C 133.890625 558.425781 131.039062 573.765625 131.011719 580.109375 C 130.96875 590.746094 130.996094 629.75 130.996094 629.75 C 130.996094 629.75 135.921875 632.085938 142.777344 630.085938 C 142.777344 630.085938 151.015625 589.125 152.488281 560.222656 C 152.660156 556.886719 173.039062 491.6875 173.390625 489.226562 C 173.742188 486.769531 174.214844 462.585938 173.863281 458.894531 C 173.511719 455.207031 143.410156 460.089844 143.410156 460.089844 " fill-opacity="1" fill-rule="nonzero"/><path fill="#f54553" d="M 153.015625 375.785156 C 153.015625 375.785156 139.632812 379.746094 137.878906 382.203125 C 136.121094 384.660156 146.339844 428.636719 145.460938 437.59375 C 144.582031 446.554688 143.957031 456.246094 143.410156 460.089844 C 143.0625 462.546875 178.960938 468.152344 179.664062 457.621094 C 180.367188 447.082031 187.664062 411.777344 187.09375 395.972656 C 186.65625 383.898438 185.515625 382.789062 183.226562 381.207031 C 180.945312 379.628906 169.308594 375.863281 169.308594 375.863281 L 153.015625 375.785156 " fill-opacity="1" fill-rule="nonzero"/><path fill="#1f3b80" d="M 170.292969 328.867188 C 170.304688 328.847656 170.316406 328.832031 170.328125 328.820312 C 172.425781 326.269531 172.476562 322.753906 170.847656 319.953125 C 169.679688 317.941406 168.363281 316.15625 167.089844 314.640625 C 166.457031 316.789062 165.246094 318.800781 163.570312 320.382812 C 164.421875 317.8125 164.433594 315.023438 163.671875 312.445312 C 163.238281 310.988281 162.277344 309.714844 161.019531 308.773438 C 160.980469 308.738281 160.960938 308.730469 160.960938 308.730469 C 160.960938 308.730469 144.746094 330.136719 141.523438 339.03125 C 138.886719 346.324219 147.742188 357.25 155.78125 363.5 C 155.78125 363.5 160.8125 368.347656 171.894531 346.769531 C 175.546875 339.65625 175.40625 332.496094 173.867188 326.996094 C 172.894531 327.941406 171.667969 328.679688 170.292969 328.867188 " fill-opacity="1" fill-rule="nonzero"/><path fill="#e3885b" d="M 156.320312 354.375 C 156.050781 370.90625 150.667969 376.515625 150.667969 376.515625 C 150.667969 376.515625 155.949219 381.085938 164.300781 383.746094 C 167.1875 384.664062 170.226562 383.164062 170.097656 380.132812 C 170.035156 378.78125 169.816406 377.320312 169.308594 375.863281 C 169.308594 375.863281 166.679688 373.429688 167.183594 366.402344 C 167.363281 363.910156 168.648438 353.390625 168.648438 353.390625 C 168.648438 353.390625 156.367188 351.6875 156.320312 354.375 " fill-opacity="1" fill-rule="nonzero"/><path fill="#ed996f" d="M 148.496094 384.636719 C 153.617188 390.449219 151.492188 420.96875 152.355469 428.007812 C 152.382812 428.015625 153.414062 442.125 145.144531 442.496094 C 140.027344 442.734375 135.339844 399.417969 135.199219 390.722656 C 135.019531 379.144531 142.421875 377.742188 148.496094 384.636719 " fill-opacity="1" fill-rule="nonzero"/><path fill="#ed996f" d="M 157.773438 352.164062 C 160.917969 347.816406 157.113281 338.871094 159.972656 336.210938 C 164.949219 331.585938 171.710938 332.203125 174.648438 343.429688 C 177.1875 353.125 176.914062 366.730469 172.417969 369.117188 C 168.523438 371.183594 160.601562 364.246094 156.582031 357.414062 C 155.132812 356.453125 151.699219 354.753906 150.976562 352.339844 C 149.488281 347.382812 153.675781 347.546875 157.773438 352.164062 " fill-opacity="1" fill-rule="nonzero"/><path fill="#f54553" d="M 148.496094 384.636719 C 151.316406 387.84375 153.027344 399.007812 153.121094 409.160156 C 153.148438 412.167969 136.480469 412.375 136.480469 412.375 C 135.195312 403.507812 135.25 393.960938 135.199219 390.722656 C 135.019531 379.144531 142.421875 377.742188 148.496094 384.636719 " fill-opacity="1" fill-rule="nonzero"/><path fill="#f7bf41" d="M 253.457031 451.363281 L 161.171875 468.328125 L 145.050781 380.683594 L 237.335938 363.71875 L 253.457031 451.363281 " fill-opacity="1" fill-rule="nonzero"/><path fill="#ffcc4d" d="M 253.457031 451.363281 L 198.289062 461.507812 L 182.164062 373.863281 L 237.335938 363.71875 L 253.457031 451.363281 " fill-opacity="1" fill-rule="nonzero"/><path fill="#ffffff" d="M 219.925781 388.011719 L 207.085938 390.371094 L 203.332031 369.96875 L 216.167969 367.613281 L 219.925781 388.011719 " fill-opacity="1" fill-rule="nonzero"/><path fill="#ffffff" d="M 218.285156 451.292969 L 202.039062 454.277344 L 198.289062 433.878906 L 214.535156 430.890625 L 218.285156 451.292969 " fill-opacity="1" fill-rule="nonzero"/><path fill="#bcbec0" d="M 205.347656 439.351562 L 201.25 440.105469 L 200.3125 434.964844 L 204.402344 434.210938 L 205.347656 439.351562 " fill-opacity="1" fill-rule="nonzero"/><path fill="#bcbec0" d="M 207.636719 451.789062 L 203.539062 452.539062 L 201.519531 441.566406 L 205.613281 440.816406 L 207.636719 451.789062 " fill-opacity="1" fill-rule="nonzero"/><path fill="#bcbec0" d="M 213.261719 433.867188 L 206.234375 435.15625 L 206.007812 433.914062 L 213.035156 432.625 L 213.261719 433.867188 " fill-opacity="1" fill-rule="nonzero"/><path fill="#bcbec0" d="M 213.617188 435.816406 L 206.589844 437.109375 L 206.367188 435.867188 L 213.394531 434.574219 L 213.617188 435.816406 " fill-opacity="1" fill-rule="nonzero"/><path fill="#bcbec0" d="M 213.976562 437.765625 L 206.949219 439.054688 L 206.722656 437.820312 L 213.75 436.527344 L 213.976562 437.765625 " fill-opacity="1" fill-rule="nonzero"/><path fill="#bcbec0" d="M 211.996094 440.792969 L 207.425781 441.628906 L 207.21875 440.519531 L 211.789062 439.675781 L 211.996094 440.792969 " fill-opacity="1" fill-rule="nonzero"/><path fill="#bcbec0" d="M 212.355469 442.753906 L 207.785156 443.597656 L 207.582031 442.484375 L 212.148438 441.644531 L 212.355469 442.753906 " fill-opacity="1" fill-rule="nonzero"/><path fill="#bcbec0" d="M 212.714844 444.722656 L 208.148438 445.566406 L 207.945312 444.449219 L 212.511719 443.613281 L 212.714844 444.722656 " fill-opacity="1" fill-rule="nonzero"/><path fill="#bcbec0" d="M 213.078125 446.6875 L 208.511719 447.53125 L 208.304688 446.417969 L 212.875 445.574219 L 213.078125 446.6875 " fill-opacity="1" fill-rule="nonzero"/><path fill="#bcbec0" d="M 213.441406 448.652344 L 208.871094 449.496094 L 208.664062 448.386719 L 213.238281 447.542969 L 213.441406 448.652344 " fill-opacity="1" fill-rule="nonzero"/><path fill="#bcbec0" d="M 213.800781 450.621094 L 209.230469 451.464844 L 209.027344 450.347656 L 213.597656 449.507812 L 213.800781 450.621094 " fill-opacity="1" fill-rule="nonzero"/><path fill="#bcbec0" d="M 216.269531 450.203125 L 214.976562 450.441406 L 212.957031 439.460938 L 214.246094 439.226562 L 216.269531 450.203125 " fill-opacity="1" fill-rule="nonzero"/><path fill="#ed996f" d="M 194.222656 416.746094 C 192.734375 415.90625 190.410156 416.410156 188.105469 417.152344 C 187.875 417.230469 189.171875 416.039062 189.757812 415.132812 C 190.269531 414.339844 190.101562 413.828125 189.875 413.917969 C 186.742188 415.179688 185.273438 416.550781 183.324219 419.683594 C 176.601562 423.21875 187.492188 424.207031 187.605469 424.035156 C 189.199219 424.257812 193.070312 423.886719 194.476562 422.3125 C 196.808594 419.695312 197.195312 418.429688 194.222656 416.746094 " fill-opacity="1" fill-rule="nonzero"/><path fill="#ed996f" d="M 246.683594 398.621094 C 245.078125 392.40625 243.453125 394.382812 242.074219 396.394531 C 240.4375 398.777344 240.980469 402.613281 243.472656 402.101562 C 244.8125 401.828125 247.902344 403.367188 246.683594 398.621094 " fill-opacity="1" fill-rule="nonzero"/><path fill="#ed996f" d="M 152.40625 429.285156 C 152.441406 429.304688 164.640625 424.628906 184.03125 419.464844 C 189.148438 418.09375 186.835938 422.671875 186.472656 422.976562 C 178.675781 429.445312 153.601562 443.847656 145.144531 442.496094 C 139.914062 441.660156 147.707031 425.722656 152.40625 429.285156 " fill-opacity="1" fill-rule="nonzero"/><path fill="#ffffff" d="M 294.871094 332.554688 C 290.050781 332.554688 286.136719 328.644531 286.136719 323.820312 C 286.136719 319 290.050781 315.089844 294.871094 315.089844 C 299.695312 315.089844 303.605469 319 303.605469 323.820312 C 303.605469 328.644531 299.695312 332.554688 294.871094 332.554688 Z M 294.871094 312.164062 C 288.433594 312.164062 283.210938 317.382812 283.210938 323.820312 C 283.210938 326.289062 283.984375 328.574219 285.292969 330.460938 C 285.246094 330.503906 285.179688 330.519531 285.132812 330.570312 L 275.980469 339.71875 C 275.09375 340.601562 275.09375 342.042969 275.980469 342.929688 C 276.417969 343.367188 277.003906 343.59375 277.578125 343.59375 C 278.164062 343.59375 278.746094 343.367188 279.183594 342.929688 L 288.339844 333.773438 C 288.402344 333.714844 288.429688 333.632812 288.476562 333.566406 C 290.3125 334.769531 292.507812 335.480469 294.871094 335.480469 C 301.3125 335.480469 306.53125 330.261719 306.53125 323.820312 C 306.53125 317.382812 301.3125 312.164062 294.871094 312.164062 " fill-opacity="1" fill-rule="nonzero"/><path fill="#f7bf41" d="M 656.429688 635.5 C 654.289062 637.089844 640.125 642.84375 635.445312 642.542969 C 630.773438 642.246094 647.347656 629.410156 647.6875 629.316406 C 648.027344 629.226562 653.816406 625.8125 653.816406 625.8125 C 657.558594 631.15625 658.578125 633.910156 656.429688 635.5 " fill-opacity="1" fill-rule="nonzero"/><path fill="#ffcc4d" d="M 638.492188 641.996094 C 634.054688 640.492188 653.394531 632.414062 653.75 632.414062 C 654.109375 632.414062 660.582031 631.976562 660.582031 631.976562 C 662.804688 638.109375 663.070312 640.84375 660.582031 641.820312 C 659.859375 642.101562 658.050781 642.359375 655.757812 642.550781 L 641.367188 642.550781 C 640.203125 642.414062 639.203125 642.238281 638.492188 641.996094 " fill-opacity="1" fill-rule="nonzero"/><path fill="#965c40" d="M 627.488281 566.660156 C 626.230469 556.058594 646.191406 462.066406 646.191406 462.066406 L 663.359375 478.003906 L 643.511719 566.832031 C 650.292969 577.667969 650.398438 610.171875 653.816406 625.8125 C 653.816406 625.8125 638.714844 637.070312 643.441406 632.617188 C 645.289062 630.882812 648.484375 626.179688 647.863281 624.488281 C 647.863281 624.488281 627.6875 568.347656 627.488281 566.660156 " fill-opacity="1" fill-rule="nonzero"/><path fill="#f1f2f2" d="M 635.898438 454.109375 C 640.738281 450.695312 661.90625 427.242188 664.832031 421.304688 C 667.625 415.632812 661.261719 403.746094 651.300781 416.488281 C 647.421875 421.449219 632.578125 439.578125 627.664062 444.914062 C 621.199219 443.246094 609.640625 440.109375 606.257812 440.789062 C 600.511719 441.941406 603.789062 445.480469 605.621094 446.730469 C 609.9375 449.675781 625.328125 456.328125 630.585938 457.046875 C 632.550781 457.5 632.449219 456.539062 635.898438 454.109375 " fill-opacity="1" fill-rule="nonzero"/><path fill="#ef354c" d="M 627.488281 566.660156 C 626.230469 556.058594 646.191406 462.066406 646.191406 462.066406 L 663.359375 478.003906 L 643.511719 566.832031 C 650.292969 577.667969 650.1875 608.984375 653.609375 624.625 C 653.609375 624.625 647.4375 626.96875 646.816406 625.28125 C 646.816406 625.28125 627.6875 568.347656 627.488281 566.660156 " fill-opacity="1" fill-rule="nonzero"/><path fill="#965c40" d="M 648.792969 634.5 C 651.03125 633.304688 655.339844 629.59375 655.179688 627.804688 L 650.53125 566.996094 C 650.53125 566.996094 647.230469 504.714844 648.210938 485.285156 C 648.496094 479.589844 646.191406 462.066406 646.191406 462.066406 L 667.949219 466.882812 C 683.671875 486.949219 675.773438 503.863281 675.773438 503.863281 C 675.773438 503.863281 669.433594 542.03125 665.050781 571.03125 C 670.753906 581.273438 661.355469 615.988281 660.582031 631.976562 C 660.410156 635.582031 643.074219 637.566406 648.792969 634.5 " fill-opacity="1" fill-rule="nonzero"/><path fill="#f54553" d="M 655.179688 627.804688 L 650.53125 566.996094 C 650.53125 566.996094 647.230469 504.714844 648.210938 485.285156 C 648.496094 479.589844 646.191406 462.066406 646.191406 462.066406 L 667.949219 466.882812 C 683.671875 486.949219 675.773438 503.863281 675.773438 503.863281 C 675.773438 503.863281 671.28125 542.300781 666.894531 571.304688 C 671.371094 584.207031 663.257812 612.972656 661.972656 628.929688 C 661.847656 630.546875 655.339844 629.59375 655.179688 627.804688 " fill-opacity="1" fill-rule="nonzero"/><g clip-path="url(#56cf3da176)"><path fill="#1f3b80" d="M 717.257812 415.769531 C 726.539062 448.132812 731.21875 450.480469 726.746094 460.035156 C 721.96875 470.246094 697.785156 471.507812 687.496094 455.960938 C 676.941406 440.007812 684.21875 416.203125 685.847656 400.28125 C 689.355469 365.890625 674.636719 365.089844 688.746094 359.941406 C 702.613281 354.878906 713.96875 366.0625 715.78125 377.492188 C 717.425781 387.84375 713.863281 403.933594 717.257812 415.769531 " fill-opacity="1" fill-rule="nonzero"/></g><path fill="#e6e7e8" d="M 662.8125 407.324219 C 659.460938 408.425781 643.453125 419.765625 641.378906 424.289062 C 638.433594 430.722656 646.191406 438.980469 646.191406 438.980469 C 646.191406 438.980469 646.285156 455.933594 646.191406 462.066406 C 646.054688 471.359375 667.949219 466.882812 667.949219 466.882812 C 666.722656 454.019531 677.0625 433.488281 681.839844 419.414062 C 682.148438 418.507812 674.433594 403.503906 662.8125 407.324219 " fill-opacity="1" fill-rule="nonzero"/><path fill="#f06570" d="M 682.824219 358.832031 C 679.035156 360.597656 677.738281 365.839844 679.925781 370.558594 C 682.113281 375.269531 686.957031 377.660156 690.753906 375.902344 C 694.542969 374.140625 695.839844 368.898438 693.652344 364.179688 C 691.460938 359.46875 686.617188 357.074219 682.824219 358.832031 " fill-opacity="1" fill-rule="nonzero"/><path fill="#8c4f32" d="M 673.960938 406.738281 C 674.410156 402.546875 676.339844 393.554688 677.691406 390.996094 C 679.773438 387.0625 675.179688 381.171875 675.179688 381.171875 L 667.460938 386.738281 C 666.273438 395.050781 660.367188 408.539062 660.367188 408.539062 C 660.367188 408.539062 650.640625 416.488281 653.222656 416.488281 C 654.996094 416.488281 664.683594 412.355469 669.726562 411.007812 C 671.660156 410.492188 674.070312 410.84375 673.941406 409.078125 C 673.886719 408.320312 673.878906 407.507812 673.960938 406.738281 " fill-opacity="1" fill-rule="nonzero"/><path fill="#254799" d="M 658.558594 371.945312 L 669.835938 384.878906 C 669.835938 384.878906 674.339844 395.234375 676.664062 394.5 C 689.019531 390.589844 692.996094 378.679688 688.585938 366.378906 C 685.859375 358.773438 668.066406 349.480469 658.558594 371.945312 " fill-opacity="1" fill-rule="nonzero"/><path fill="#965c40" d="M 670.5625 386.164062 C 668.207031 381.691406 673.058594 374.308594 670.738281 371.398438 C 666.703125 366.347656 660.242188 365.699219 655.890625 375.285156 C 652.136719 383.570312 650.480469 395.875 654.375 398.824219 C 657.75 401.386719 666.195312 396.542969 670.945312 391.109375 C 672.441406 390.503906 675.917969 389.585938 676.941406 387.539062 C 679.039062 383.339844 675.070312 382.742188 670.5625 386.164062 " fill-opacity="1" fill-rule="nonzero"/><path fill="#965c40" d="M 655.175781 470.660156 C 654.496094 473.480469 660.382812 469.460938 663.945312 471.65625 C 664.585938 472.050781 667.964844 470.523438 668.140625 469.378906 C 668.273438 468.496094 665.113281 466.773438 663.726562 466.582031 C 659.628906 466.007812 655.804688 468.09375 655.175781 470.660156 " fill-opacity="1" fill-rule="nonzero"/><path fill="#f1f2f2" d="M 677.757812 414.363281 C 674.601562 414.015625 668.652344 417.636719 669.757812 425.621094 C 671.351562 437.09375 676.605469 453.894531 676.605469 453.894531 C 669.300781 463.0625 663.171875 467.003906 663.265625 467.960938 C 663.390625 469.292969 664.832031 470.660156 665.664062 471.347656 C 666.007812 471.632812 666.460938 471.726562 666.894531 471.601562 C 670.1875 470.644531 686.023438 462.214844 688.855469 457.800781 C 690.324219 455.503906 689.382812 443.75 684.414062 426.53125 C 682.316406 419.277344 681.992188 414.824219 677.757812 414.363281 " fill-opacity="1" fill-rule="nonzero"/><path fill="#965c40" d="M 598.628906 440.902344 C 599.265625 441.863281 603.324219 444.832031 606.066406 444.679688 C 609.53125 443.75 609.257812 442.03125 607.886719 440.496094 C 606.84375 439.332031 606.117188 436.457031 601.757812 435.90625 C 601.253906 435.84375 601.921875 437.296875 601.921875 437.296875 C 601.921875 437.296875 597.203125 432.707031 596.8125 433.382812 C 596.097656 434.613281 597.949219 439.875 598.628906 440.902344 " fill-opacity="1" fill-rule="nonzero"/><path fill="#1f3b80" d="M 609.855469 449.617188 C 609.546875 449.617188 609.238281 449.472656 609.046875 449.210938 L 590.40625 424.289062 C 590.066406 423.84375 590.160156 423.210938 590.609375 422.875 C 591.050781 422.535156 591.6875 422.636719 592.023438 423.082031 L 610.664062 448 C 611 448.445312 610.90625 449.078125 610.460938 449.414062 C 610.277344 449.550781 610.066406 449.617188 609.855469 449.617188 " fill-opacity="1" fill-rule="nonzero"/><path fill="#f54553" d="M 321.015625 394.421875 C 314.253906 394.421875 308.773438 388.941406 308.773438 382.183594 C 308.773438 375.421875 314.253906 369.949219 321.015625 369.949219 C 327.773438 369.949219 333.253906 375.421875 333.253906 382.183594 C 333.253906 388.941406 327.773438 394.421875 321.015625 394.421875 Z M 321.015625 358.882812 C 308.03125 358.882812 297.511719 369.800781 297.511719 383.261719 C 297.511719 405.457031 316.125 425.476562 320.222656 429.617188 C 320.667969 430.066406 321.367188 430.074219 321.820312 429.632812 C 325.953125 425.621094 344.515625 406.324219 344.515625 383.261719 C 344.515625 369.800781 333.992188 358.882812 321.015625 358.882812 " fill-opacity="1" fill-rule="nonzero"/><path fill="#ffcc4d" d="M 478.222656 542.484375 C 478.222656 561.3125 462.953125 576.578125 444.117188 576.578125 C 425.285156 576.578125 410.015625 561.3125 410.015625 542.484375 C 410.015625 523.65625 425.285156 508.390625 444.117188 508.390625 C 462.953125 508.390625 478.222656 523.65625 478.222656 542.484375 " fill-opacity="1" fill-rule="nonzero"/><path fill="#f0a737" d="M 474.058594 542.484375 C 474.058594 559.015625 460.652344 572.417969 444.117188 572.417969 C 427.585938 572.417969 414.171875 559.015625 414.171875 542.484375 C 414.171875 525.953125 427.585938 512.542969 444.117188 512.542969 C 460.652344 512.542969 474.058594 525.953125 474.058594 542.484375 " fill-opacity="1" fill-rule="nonzero"/><path fill="#f7bf41" d="M 472.023438 542.484375 C 472.023438 557.894531 459.53125 570.386719 444.117188 570.386719 C 428.707031 570.386719 416.207031 557.894531 416.207031 542.484375 C 416.207031 527.074219 428.707031 514.578125 444.117188 514.578125 C 459.53125 514.578125 472.023438 527.074219 472.023438 542.484375 " fill-opacity="1" fill-rule="nonzero"/><path fill="#f0a737" d="M 448.121094 539.289062 C 442.953125 535.335938 441.375 533.332031 441.375 530.882812 L 441.375 530.070312 C 441.375 527.5625 443.023438 526.371094 445.421875 526.371094 C 448.269531 526.371094 449.617188 527.8125 449.617188 530.882812 L 449.617188 531.347656 L 457.265625 531.261719 L 457.265625 530.382812 C 457.265625 524.871094 453.96875 521.355469 448.417969 520.476562 L 448.417969 516.53125 L 442.128906 516.53125 L 442.128906 520.476562 C 436.652344 521.355469 433.429688 524.738281 433.429688 530.195312 L 433.429688 531.136719 C 433.429688 535.902344 435.902344 539.476562 442.953125 544.929688 C 448.121094 548.878906 449.695312 550.882812 449.695312 553.328125 L 449.695312 554.269531 C 449.695312 556.777344 447.671875 557.96875 445.351562 557.96875 C 442.199219 557.96875 440.699219 556.53125 440.699219 553.457031 L 440.699219 551.40625 L 433.054688 551.449219 L 433.054688 553.957031 C 433.054688 559.410156 436.582031 562.855469 442.128906 563.863281 L 442.128906 568.4375 L 448.417969 568.4375 L 448.417969 563.863281 C 454.042969 563.050781 457.640625 559.664062 457.640625 554.144531 L 457.640625 553.078125 C 457.640625 548.3125 455.164062 544.742188 448.121094 539.289062 " fill-opacity="1" fill-rule="nonzero"/><path fill="#ffffff" d="M 446.890625 539.289062 C 441.722656 535.335938 440.148438 533.332031 440.148438 530.882812 L 440.148438 530.070312 C 440.148438 527.5625 441.792969 526.371094 444.191406 526.371094 C 447.039062 526.371094 448.390625 527.8125 448.390625 530.882812 L 448.390625 531.347656 L 456.035156 531.261719 L 456.035156 530.382812 C 456.035156 524.871094 452.742188 521.355469 447.191406 520.476562 L 447.191406 516.53125 L 440.898438 516.53125 L 440.898438 520.476562 C 435.425781 521.355469 432.199219 524.738281 432.199219 530.195312 L 432.199219 531.136719 C 432.199219 535.902344 434.671875 539.476562 441.722656 544.929688 C 446.890625 548.878906 448.464844 550.882812 448.464844 553.328125 L 448.464844 554.269531 C 448.464844 556.777344 446.4375 557.96875 444.117188 557.96875 C 440.96875 557.96875 439.472656 556.53125 439.472656 553.457031 L 439.472656 551.40625 L 431.824219 551.449219 L 431.824219 553.957031 C 431.824219 559.410156 435.347656 562.855469 440.898438 563.863281 L 440.898438 568.4375 L 447.191406 568.4375 L 447.191406 563.863281 C 452.8125 563.050781 456.410156 559.664062 456.410156 554.144531 L 456.410156 553.078125 C 456.410156 548.3125 453.933594 544.742188 446.890625 539.289062 " fill-opacity="1" fill-rule="nonzero"/><path fill="#346ee3" d="M 435.421875 581.019531 C 435.421875 601.472656 418.839844 618.046875 398.386719 618.046875 C 377.9375 618.046875 361.359375 601.472656 361.359375 581.019531 C 361.359375 560.574219 377.9375 544 398.386719 544 C 418.839844 544 435.421875 560.574219 435.421875 581.019531 " fill-opacity="1" fill-rule="nonzero"/><path fill="#ffffff" d="M 430.742188 581.019531 C 430.742188 598.886719 416.257812 613.367188 398.386719 613.367188 C 380.519531 613.367188 366.039062 598.886719 366.039062 581.019531 C 366.039062 563.160156 380.519531 548.679688 398.386719 548.679688 C 416.257812 548.679688 430.742188 563.160156 430.742188 581.019531 " fill-opacity="1" fill-rule="nonzero"/><path fill="#346ee3" d="M 417.570312 568.800781 C 416.871094 567.699219 415.414062 567.382812 414.320312 568.078125 L 401.84375 576.023438 C 400.859375 575.339844 399.671875 574.941406 398.386719 574.941406 C 397.785156 574.941406 397.214844 575.054688 396.664062 575.21875 L 385.34375 558.132812 C 384.804688 557.320312 383.710938 557.097656 382.894531 557.632812 C 382.082031 558.171875 381.855469 559.273438 382.394531 560.085938 L 393.71875 577.171875 C 392.847656 578.222656 392.304688 579.550781 392.304688 581.019531 C 392.304688 584.386719 395.027344 587.105469 398.386719 587.105469 C 401.746094 587.105469 404.472656 584.386719 404.472656 581.019531 C 404.472656 580.675781 404.421875 580.339844 404.367188 580.007812 L 416.855469 572.054688 C 417.949219 571.355469 418.273438 569.898438 417.570312 568.800781 " fill-opacity="1" fill-rule="nonzero"/><path fill="#346ee3" d="M 471.519531 229.710938 C 471.691406 244.734375 459.648438 257.054688 444.621094 257.21875 C 429.589844 257.390625 417.269531 245.347656 417.105469 230.324219 C 416.933594 215.300781 428.980469 202.988281 444.003906 202.816406 C 459.03125 202.644531 471.355469 214.691406 471.519531 229.710938 " fill-opacity="1" fill-rule="nonzero"/><path fill="#ffffff" d="M 445.542969 210.703125 L 449.503906 222.894531 C 449.613281 223.21875 449.914062 223.4375 450.253906 223.4375 L 463.074219 223.4375 C 463.835938 223.4375 464.15625 224.414062 463.535156 224.859375 L 453.164062 232.398438 C 452.890625 232.59375 452.773438 232.953125 452.878906 233.277344 L 456.84375 245.464844 C 457.078125 246.191406 456.242188 246.796875 455.628906 246.34375 L 445.257812 238.8125 C 444.980469 238.617188 444.609375 238.617188 444.328125 238.8125 L 433.960938 246.34375 C 433.339844 246.796875 432.511719 246.191406 432.746094 245.464844 L 436.707031 233.277344 C 436.8125 232.953125 436.695312 232.59375 436.421875 232.398438 L 426.054688 224.859375 C 425.433594 224.414062 425.753906 223.4375 426.515625 223.4375 L 439.335938 223.4375 C 439.675781 223.4375 439.976562 223.21875 440.082031 222.894531 L 444.042969 210.703125 C 444.277344 209.980469 445.308594 209.980469 445.542969 210.703125 " fill-opacity="1" fill-rule="nonzero"/><path fill="#ffcc4d" d="M 567.085938 640.578125 L 492.628906 640.578125 C 490.433594 640.578125 488.660156 638.804688 488.660156 636.609375 L 488.660156 573.855469 C 488.660156 571.667969 490.433594 569.894531 492.628906 569.894531 L 567.085938 569.894531 C 569.273438 569.894531 571.050781 571.667969 571.050781 573.855469 L 571.050781 636.609375 C 571.050781 638.804688 569.273438 640.578125 567.085938 640.578125 " fill-opacity="1" fill-rule="nonzero"/><path fill="#f54553" d="M 541.230469 640.578125 L 518.476562 640.578125 L 518.476562 569.894531 L 541.230469 569.894531 L 541.230469 640.578125 " fill-opacity="1" fill-rule="nonzero"/><path fill="#ef354c" d="M 496.335938 547.386719 C 487.910156 560.460938 511.859375 569.894531 511.859375 569.894531 L 520.644531 569.894531 C 520.644531 569.894531 506.402344 562.296875 506.402344 554.5 C 506.402344 546.707031 517.917969 555.445312 526.703125 569.894531 L 532.308594 569.894531 C 519.738281 533.285156 504.765625 534.316406 496.335938 547.386719 " fill-opacity="1" fill-rule="nonzero"/><path fill="#ef354c" d="M 563.375 547.386719 C 571.804688 560.460938 547.851562 569.894531 547.851562 569.894531 L 539.066406 569.894531 C 539.066406 569.894531 553.308594 562.296875 553.308594 554.5 C 553.308594 546.707031 541.792969 555.445312 533.003906 569.894531 L 527.402344 569.894531 C 539.976562 533.285156 554.945312 534.316406 563.375 547.386719 " fill-opacity="1" fill-rule="nonzero"/><path fill="#ef354c" d="M 516.917969 569.894531 C 509.316406 577.265625 498.253906 582.835938 498.253906 582.835938 L 507.867188 595.292969 L 529.558594 569.800781 L 516.917969 569.894531 " fill-opacity="1" fill-rule="nonzero"/><path fill="#ef354c" d="M 542.546875 569.480469 C 550.496094 576.480469 561.449219 581.101562 561.449219 581.101562 L 552.453125 594.011719 L 529.558594 569.800781 L 542.546875 569.480469 " fill-opacity="1" fill-rule="nonzero"/><g clip-path="url(#4bce8bf938)"><path fill="#346ee3" d="M 714.117188 648.648438 L 85.859375 648.648438 C 83.464844 648.648438 81.515625 646.703125 81.515625 644.304688 C 81.515625 641.910156 83.464844 639.964844 85.859375 639.964844 L 714.117188 639.964844 C 716.515625 639.964844 718.457031 641.910156 718.457031 644.304688 C 718.457031 646.703125 716.515625 648.648438 714.117188 648.648438 " fill-opacity="1" fill-rule="nonzero"/></g></svg>