<svg xmlns="http://www.w3.org/2000/svg" xmlns:xlink="http://www.w3.org/1999/xlink" width="1080" zoomAndPan="magnify" viewBox="0 0 810 809.999993" height="1080" preserveAspectRatio="xMidYMid meet" version="1.0"><defs><g/></defs><g fill="#545454" fill-opacity="1"><g transform="translate(40.487437, 362.003325)"><g><path d="M 87.457031 0 L 87.457031 -67.875 L 32.027344 -67.875 L 32.027344 -85.296875 L 87.457031 -85.296875 L 87.457031 -110.6875 L 4.316406 -110.6875 L 4.316406 -43.480469 L 59.742188 -43.480469 L 59.742188 -25.222656 L 4.316406 -25.222656 L 4.316406 0 Z M 87.457031 0 "/></g></g></g><g fill="#545454" fill-opacity="1"><g transform="translate(132.092137, 362.003325)"><g><path d="M 87.457031 0 L 87.457031 -110.6875 L 4.316406 -110.6875 L 4.316406 0 L 32.027344 0 L 32.027344 -30.867188 L 59.742188 -30.867188 L 59.742188 0 Z M 59.742188 -56.089844 L 32.027344 -56.089844 L 32.027344 -85.296875 L 59.742188 -85.296875 Z M 59.742188 -56.089844 "/></g></g></g><g fill="#545454" fill-opacity="1"><g transform="translate(223.862792, 362.003325)"><g><path d="M 85.628906 0 L 85.628906 -110.6875 L 2.488281 -110.6875 L 2.488281 -85.296875 L 7.964844 -85.296875 L 7.964844 0 L 30.203125 0 L 30.203125 -85.296875 L 57.917969 -85.296875 L 57.917969 0 Z M 85.628906 0 "/></g></g></g><g fill="#545454" fill-opacity="1"><g transform="translate(313.807997, 362.003325)"><g><path d="M 85.796875 0 L 85.796875 -110.6875 L 2.65625 -110.6875 L 2.65625 -85.296875 L 8.132812 -85.296875 L 8.132812 -25.222656 L 2.65625 -25.222656 L 2.65625 0 Z M 58.082031 -25.222656 L 30.367188 -25.222656 L 30.367188 -85.296875 L 58.082031 -85.296875 Z M 58.082031 -25.222656 "/></g></g></g><g fill="#545454" fill-opacity="1"><g transform="translate(403.919135, 362.003325)"><g><path d="M 87.125 0 L 87.125 -25.222656 L 32.027344 -25.222656 L 32.027344 -43.480469 L 87.125 -43.480469 L 87.125 -67.875 L 32.027344 -67.875 L 32.027344 -85.296875 L 87.125 -85.296875 L 87.125 -110.6875 L 4.316406 -110.6875 L 4.316406 0 Z M 87.125 0 "/></g></g></g><g fill="#545454" fill-opacity="1"><g transform="translate(495.357902, 362.003325)"><g><path d="M 87.125 0 L 87.125 -25.222656 L 32.027344 -25.222656 L 32.027344 -43.480469 L 87.125 -43.480469 L 87.125 -67.875 L 32.027344 -67.875 L 32.027344 -85.296875 L 87.125 -85.296875 L 87.125 -110.6875 L 4.316406 -110.6875 L 4.316406 0 Z M 87.125 0 "/></g></g></g><g fill="#545454" fill-opacity="1"><g transform="translate(586.796645, 362.003325)"><g><path d="M 87.457031 -30.867188 L 87.457031 -110.6875 L 4.316406 -110.6875 L 4.316406 0 L 32.027344 0 L 32.027344 -30.867188 Z M 59.742188 -56.089844 L 32.027344 -56.089844 L 32.027344 -85.296875 L 59.742188 -85.296875 Z M 59.742188 -56.089844 "/></g></g></g><g fill="#000000" fill-opacity="0.4"><g transform="translate(434.38935, 541.6318)"><g><path d="M -6.890625 -38.035156 C -7.402344 -36.761719 -7.660156 -35.484375 -7.660156 -34.207031 C -7.660156 -27.824219 -2.042969 -23.996094 4.339844 -23.996094 C 12.765625 -23.996094 22.464844 -30.378906 22.464844 -47.480469 L 22.464844 -49.523438 C 22.464844 -50.289062 22.464844 -51.054688 22.210938 -51.820312 C 34.207031 -60.753906 46.203125 -68.160156 60.5 -73.007812 C 62.796875 -73.773438 64.074219 -75.5625 64.074219 -77.859375 C 64.074219 -78.625 64.074219 -79.390625 63.820312 -79.644531 C 63.054688 -81.6875 61.265625 -82.964844 59.222656 -82.964844 C 58.457031 -82.964844 57.691406 -82.964844 57.4375 -82.710938 C 43.398438 -77.859375 31.652344 -70.96875 20.167969 -62.796875 C 18.125 -70.96875 11.996094 -83.984375 11.996094 -92.921875 C 11.996094 -95.984375 12.765625 -98.28125 14.039062 -99.558594 C 14.804688 -100.324219 16.335938 -102.109375 19.144531 -102.109375 C 20.933594 -102.109375 22.976562 -101.601562 25.273438 -100.324219 C 26.292969 -100.066406 27.058594 -99.8125 27.570312 -99.8125 C 29.355469 -99.8125 30.886719 -100.578125 32.164062 -102.367188 C 32.675781 -103.132812 32.929688 -103.898438 32.929688 -104.917969 C 32.929688 -106.960938 31.910156 -108.492188 30.121094 -109.257812 C 26.546875 -111.300781 22.976562 -112.320312 19.144531 -112.320312 C 9.699219 -112.320312 1.785156 -105.175781 1.785156 -92.15625 C 1.785156 -90.367188 2.042969 -88.835938 2.296875 -86.792969 C 4.339844 -75.304688 9.191406 -67.648438 11.488281 -56.160156 C -1.53125 -46.203125 -5.105469 -42.886719 -6.890625 -38.035156 Z M 2.554688 -34.460938 C 3.320312 -36.25 6.125 -38.800781 11.996094 -43.652344 C 10.722656 -34.207031 4.339844 -33.1875 2.554688 -34.460938 Z M 2.554688 -34.460938 "/></g></g></g><g fill="#000000" fill-opacity="0.4"><g transform="translate(487.483151, 541.6318)"><g><path d="M 40.589844 -47.738281 C 44.417969 -54.628906 46.714844 -62.542969 46.714844 -70.457031 C 49.523438 -69.945312 52.332031 -69.691406 55.648438 -69.691406 C 61.523438 -69.691406 67.902344 -70.710938 74.796875 -72.5 C 77.347656 -73.265625 78.625 -75.050781 78.625 -77.859375 L 78.625 -78.878906 C 77.859375 -80.921875 75.816406 -82.710938 73.519531 -82.710938 C 72.753906 -82.710938 73.007812 -82.453125 72.242188 -82.453125 C 66.371094 -80.667969 61.011719 -79.902344 55.90625 -79.902344 C 51.820312 -79.902344 48.246094 -80.667969 45.183594 -81.433594 C 43.140625 -90.625 34.71875 -104.40625 25.015625 -103.132812 C 24.25 -103.640625 23.230469 -103.898438 22.210938 -103.898438 C 20.933594 -103.898438 19.65625 -103.640625 18.890625 -102.875 C 11.488281 -96.496094 5.871094 -88.324219 3.0625 -78.371094 C 1.277344 -72.753906 0.511719 -67.394531 0.511719 -62.289062 C 0.511719 -44.929688 10.210938 -33.953125 21.1875 -33.953125 C 28.082031 -33.953125 34.71875 -38.292969 40.589844 -47.738281 Z M 31.652344 -53.097656 C 27.824219 -46.972656 24.25 -43.90625 20.933594 -43.90625 C 15.0625 -43.90625 10.976562 -52.332031 10.976562 -63.308594 C 10.976562 -71.476562 13.53125 -81.179688 19.910156 -89.347656 C 22.210938 -83.476562 27.824219 -77.605469 36.25 -73.773438 C 36.25 -72.753906 36.503906 -71.734375 36.503906 -70.457031 C 36.503906 -64.074219 34.460938 -57.949219 31.652344 -53.097656 Z M 31.652344 -53.097656 "/></g></g></g><g fill="#000000" fill-opacity="0.4"><g transform="translate(554.616162, 541.6318)"><g><path d="M 7.914062 -33.695312 C 10.722656 -33.695312 12.253906 -34.972656 12.765625 -37.527344 C 19.65625 -64.074219 34.460938 -91.898438 38.035156 -93.941406 C 39.824219 -89.855469 39.3125 -75.304688 40.332031 -46.460938 C 40.589844 -43.652344 42.375 -41.609375 45.183594 -41.609375 C 47.992188 -41.355469 49.777344 -42.886719 50.542969 -45.695312 C 51.820312 -53.097656 58.203125 -74.796875 63.5625 -82.199219 C 65.605469 -75.050781 67.136719 -53.097656 83.984375 -50.289062 C 84.75 -50.289062 85.519531 -50.035156 86.539062 -50.035156 C 98.792969 -50.035156 110.535156 -64.074219 118.957031 -73.773438 C 119.726562 -74.539062 119.980469 -75.5625 119.980469 -76.839844 C 119.980469 -78.625 119.214844 -79.902344 117.9375 -80.921875 C 117.171875 -81.6875 116.152344 -82.199219 114.875 -82.199219 C 113.085938 -82.199219 111.8125 -81.433594 110.789062 -80.15625 C 96.496094 -61.777344 88.835938 -59.480469 85.519531 -60.246094 C 73.265625 -62.289062 77.09375 -86.539062 68.667969 -92.15625 C 67.394531 -93.175781 65.859375 -93.6875 64.074219 -93.6875 C 63.308594 -93.6875 62.542969 -93.6875 62.289062 -93.429688 C 57.949219 -92.410156 53.609375 -87.050781 49.777344 -77.605469 C 49.011719 -92.921875 49.269531 -101.601562 41.097656 -103.640625 C 40.078125 -103.898438 39.058594 -104.152344 38.035156 -104.152344 C 34.71875 -104.152344 30.378906 -102.621094 26.546875 -95.730469 C 21.441406 -87.304688 16.847656 -78.371094 13.019531 -69.433594 L 13.019531 -99.8125 C 13.019531 -102.621094 10.722656 -104.917969 7.914062 -104.917969 C 5.105469 -104.917969 2.808594 -102.621094 2.808594 -99.8125 L 2.808594 -38.800781 C 2.808594 -35.992188 5.105469 -33.695312 7.914062 -33.695312 Z M 7.914062 -33.695312 "/></g></g></g><g fill="#000000" fill-opacity="0.4"><g transform="translate(662.080042, 541.6318)"><g><path d="M -0.765625 -36.25 C 1.53125 -34.71875 4.085938 -33.953125 6.890625 -33.953125 C 16.335938 -33.953125 27.316406 -44.929688 33.1875 -54.375 C 32.421875 -42.375 38.035156 -33.953125 46.972656 -33.953125 C 57.183594 -33.953125 71.988281 -44.929688 88.324219 -74.796875 C 88.582031 -75.816406 88.835938 -76.582031 88.835938 -77.09375 C 88.835938 -79.136719 87.816406 -80.667969 86.027344 -81.6875 C 85.519531 -81.945312 84.75 -82.199219 83.730469 -82.199219 C 81.6875 -82.199219 80.15625 -81.433594 79.136719 -79.644531 C 70.96875 -63.308594 55.90625 -44.417969 48.503906 -44.417969 C 45.695312 -44.417969 44.164062 -46.714844 44.164062 -53.609375 C 44.164062 -56.925781 44.417969 -61.011719 45.4375 -66.117188 C 46.203125 -71.476562 47.226562 -76.839844 49.011719 -81.6875 C 50.289062 -85.519531 47.992188 -88.835938 44.164062 -88.835938 C 42.375 -88.835938 40.84375 -87.816406 39.566406 -85.773438 C 33.441406 -74.03125 23.484375 -54.628906 13.019531 -46.972656 C 10.722656 -45.183594 8.933594 -44.417969 7.148438 -44.417969 C 4.339844 -44.417969 3.0625 -46.460938 3.0625 -50.800781 C 3.0625 -64.074219 18.125 -93.6875 45.4375 -93.6875 C 48.246094 -93.6875 50.542969 -95.984375 50.542969 -98.792969 C 50.542969 -101.601562 48.246094 -103.898438 45.4375 -103.898438 C 13.53125 -103.898438 -6.890625 -71.476562 -6.890625 -50.800781 C -6.890625 -44.417969 -4.851562 -39.058594 -0.765625 -36.25 Z M -0.765625 -36.25 "/></g></g></g><g fill="#000000" fill-opacity="0.4"><g transform="translate(738.402365, 541.6318)"><g><path d="M 6.382812 -35.738281 C 8.679688 -34.460938 10.976562 -33.695312 13.273438 -33.695312 C 29.101562 -33.695312 45.949219 -59.734375 54.117188 -74.796875 C 54.375 -75.816406 54.628906 -76.582031 54.628906 -77.09375 C 54.628906 -78.878906 53.863281 -80.410156 52.078125 -81.6875 C 51.054688 -81.945312 50.289062 -82.199219 49.777344 -82.199219 C 47.738281 -82.199219 46.203125 -81.433594 44.929688 -79.644531 C 34.460938 -61.011719 21.1875 -44.164062 13.53125 -44.164062 C 12.765625 -44.164062 12.253906 -44.417969 11.488281 -44.671875 C 9.699219 -45.695312 8.933594 -48.246094 8.933594 -52.585938 C 8.933594 -65.605469 16.847656 -90.367188 18.890625 -97.003906 C 19.65625 -99.8125 18.125 -102.621094 15.316406 -103.386719 C 12.507812 -104.152344 9.699219 -102.367188 8.933594 -99.558594 C 4.851562 -84.496094 -1.019531 -66.628906 -1.019531 -53.097656 C -1.019531 -45.183594 1.019531 -39.058594 6.382812 -35.738281 Z M 20.675781 -117.683594 C 23.230469 -117.683594 24.761719 -118.957031 25.527344 -121.257812 L 27.824219 -128.914062 C 28.847656 -132.742188 25.78125 -135.296875 22.71875 -135.296875 C 20.675781 -135.296875 18.636719 -134.273438 17.871094 -131.46875 L 16.847656 -127.894531 L 15.828125 -124.0625 C 15.0625 -121 16.847656 -117.683594 20.675781 -117.683594 Z M 20.675781 -117.683594 "/></g></g></g><g fill="#545454" fill-opacity="1"><g transform="translate(423.107334, 530.34978)"><g><path d="M -6.890625 -38.035156 C -7.402344 -36.761719 -7.660156 -35.484375 -7.660156 -34.207031 C -7.660156 -27.824219 -2.042969 -23.996094 4.339844 -23.996094 C 12.765625 -23.996094 22.464844 -30.378906 22.464844 -47.480469 L 22.464844 -49.523438 C 22.464844 -50.289062 22.464844 -51.054688 22.210938 -51.820312 C 34.207031 -60.753906 46.203125 -68.160156 60.5 -73.007812 C 62.796875 -73.773438 64.074219 -75.5625 64.074219 -77.859375 C 64.074219 -78.625 64.074219 -79.390625 63.820312 -79.644531 C 63.054688 -81.6875 61.265625 -82.964844 59.222656 -82.964844 C 58.457031 -82.964844 57.691406 -82.964844 57.4375 -82.710938 C 43.398438 -77.859375 31.652344 -70.96875 20.167969 -62.796875 C 18.125 -70.96875 11.996094 -83.984375 11.996094 -92.921875 C 11.996094 -95.984375 12.765625 -98.28125 14.039062 -99.558594 C 14.804688 -100.324219 16.335938 -102.109375 19.144531 -102.109375 C 20.933594 -102.109375 22.976562 -101.601562 25.273438 -100.324219 C 26.292969 -100.066406 27.058594 -99.8125 27.570312 -99.8125 C 29.355469 -99.8125 30.886719 -100.578125 32.164062 -102.367188 C 32.675781 -103.132812 32.929688 -103.898438 32.929688 -104.917969 C 32.929688 -106.960938 31.910156 -108.492188 30.121094 -109.257812 C 26.546875 -111.300781 22.976562 -112.320312 19.144531 -112.320312 C 9.699219 -112.320312 1.785156 -105.175781 1.785156 -92.15625 C 1.785156 -90.367188 2.042969 -88.835938 2.296875 -86.792969 C 4.339844 -75.304688 9.191406 -67.648438 11.488281 -56.160156 C -1.53125 -46.203125 -5.105469 -42.886719 -6.890625 -38.035156 Z M 2.554688 -34.460938 C 3.320312 -36.25 6.125 -38.800781 11.996094 -43.652344 C 10.722656 -34.207031 4.339844 -33.1875 2.554688 -34.460938 Z M 2.554688 -34.460938 "/></g></g></g><g fill="#545454" fill-opacity="1"><g transform="translate(476.201135, 530.34978)"><g><path d="M 40.589844 -47.738281 C 44.417969 -54.628906 46.714844 -62.542969 46.714844 -70.457031 C 49.523438 -69.945312 52.332031 -69.691406 55.648438 -69.691406 C 61.523438 -69.691406 67.902344 -70.710938 74.796875 -72.5 C 77.347656 -73.265625 78.625 -75.050781 78.625 -77.859375 L 78.625 -78.878906 C 77.859375 -80.921875 75.816406 -82.710938 73.519531 -82.710938 C 72.753906 -82.710938 73.007812 -82.453125 72.242188 -82.453125 C 66.371094 -80.667969 61.011719 -79.902344 55.90625 -79.902344 C 51.820312 -79.902344 48.246094 -80.667969 45.183594 -81.433594 C 43.140625 -90.625 34.71875 -104.40625 25.015625 -103.132812 C 24.25 -103.640625 23.230469 -103.898438 22.210938 -103.898438 C 20.933594 -103.898438 19.65625 -103.640625 18.890625 -102.875 C 11.488281 -96.496094 5.871094 -88.324219 3.0625 -78.371094 C 1.277344 -72.753906 0.511719 -67.394531 0.511719 -62.289062 C 0.511719 -44.929688 10.210938 -33.953125 21.1875 -33.953125 C 28.082031 -33.953125 34.71875 -38.292969 40.589844 -47.738281 Z M 31.652344 -53.097656 C 27.824219 -46.972656 24.25 -43.90625 20.933594 -43.90625 C 15.0625 -43.90625 10.976562 -52.332031 10.976562 -63.308594 C 10.976562 -71.476562 13.53125 -81.179688 19.910156 -89.347656 C 22.210938 -83.476562 27.824219 -77.605469 36.25 -73.773438 C 36.25 -72.753906 36.503906 -71.734375 36.503906 -70.457031 C 36.503906 -64.074219 34.460938 -57.949219 31.652344 -53.097656 Z M 31.652344 -53.097656 "/></g></g></g><g fill="#545454" fill-opacity="1"><g transform="translate(543.334146, 530.34978)"><g><path d="M 7.914062 -33.695312 C 10.722656 -33.695312 12.253906 -34.972656 12.765625 -37.527344 C 19.65625 -64.074219 34.460938 -91.898438 38.035156 -93.941406 C 39.824219 -89.855469 39.3125 -75.304688 40.332031 -46.460938 C 40.589844 -43.652344 42.375 -41.609375 45.183594 -41.609375 C 47.992188 -41.355469 49.777344 -42.886719 50.542969 -45.695312 C 51.820312 -53.097656 58.203125 -74.796875 63.5625 -82.199219 C 65.605469 -75.050781 67.136719 -53.097656 83.984375 -50.289062 C 84.75 -50.289062 85.519531 -50.035156 86.539062 -50.035156 C 98.792969 -50.035156 110.535156 -64.074219 118.957031 -73.773438 C 119.726562 -74.539062 119.980469 -75.5625 119.980469 -76.839844 C 119.980469 -78.625 119.214844 -79.902344 117.9375 -80.921875 C 117.171875 -81.6875 116.152344 -82.199219 114.875 -82.199219 C 113.085938 -82.199219 111.8125 -81.433594 110.789062 -80.15625 C 96.496094 -61.777344 88.835938 -59.480469 85.519531 -60.246094 C 73.265625 -62.289062 77.09375 -86.539062 68.667969 -92.15625 C 67.394531 -93.175781 65.859375 -93.6875 64.074219 -93.6875 C 63.308594 -93.6875 62.542969 -93.6875 62.289062 -93.429688 C 57.949219 -92.410156 53.609375 -87.050781 49.777344 -77.605469 C 49.011719 -92.921875 49.269531 -101.601562 41.097656 -103.640625 C 40.078125 -103.898438 39.058594 -104.152344 38.035156 -104.152344 C 34.71875 -104.152344 30.378906 -102.621094 26.546875 -95.730469 C 21.441406 -87.304688 16.847656 -78.371094 13.019531 -69.433594 L 13.019531 -99.8125 C 13.019531 -102.621094 10.722656 -104.917969 7.914062 -104.917969 C 5.105469 -104.917969 2.808594 -102.621094 2.808594 -99.8125 L 2.808594 -38.800781 C 2.808594 -35.992188 5.105469 -33.695312 7.914062 -33.695312 Z M 7.914062 -33.695312 "/></g></g></g><g fill="#545454" fill-opacity="1"><g transform="translate(650.798027, 530.34978)"><g><path d="M -0.765625 -36.25 C 1.53125 -34.71875 4.085938 -33.953125 6.890625 -33.953125 C 16.335938 -33.953125 27.316406 -44.929688 33.1875 -54.375 C 32.421875 -42.375 38.035156 -33.953125 46.972656 -33.953125 C 57.183594 -33.953125 71.988281 -44.929688 88.324219 -74.796875 C 88.582031 -75.816406 88.835938 -76.582031 88.835938 -77.09375 C 88.835938 -79.136719 87.816406 -80.667969 86.027344 -81.6875 C 85.519531 -81.945312 84.75 -82.199219 83.730469 -82.199219 C 81.6875 -82.199219 80.15625 -81.433594 79.136719 -79.644531 C 70.96875 -63.308594 55.90625 -44.417969 48.503906 -44.417969 C 45.695312 -44.417969 44.164062 -46.714844 44.164062 -53.609375 C 44.164062 -56.925781 44.417969 -61.011719 45.4375 -66.117188 C 46.203125 -71.476562 47.226562 -76.839844 49.011719 -81.6875 C 50.289062 -85.519531 47.992188 -88.835938 44.164062 -88.835938 C 42.375 -88.835938 40.84375 -87.816406 39.566406 -85.773438 C 33.441406 -74.03125 23.484375 -54.628906 13.019531 -46.972656 C 10.722656 -45.183594 8.933594 -44.417969 7.148438 -44.417969 C 4.339844 -44.417969 3.0625 -46.460938 3.0625 -50.800781 C 3.0625 -64.074219 18.125 -93.6875 45.4375 -93.6875 C 48.246094 -93.6875 50.542969 -95.984375 50.542969 -98.792969 C 50.542969 -101.601562 48.246094 -103.898438 45.4375 -103.898438 C 13.53125 -103.898438 -6.890625 -71.476562 -6.890625 -50.800781 C -6.890625 -44.417969 -4.851562 -39.058594 -0.765625 -36.25 Z M -0.765625 -36.25 "/></g></g></g><g fill="#545454" fill-opacity="1"><g transform="translate(727.12035, 530.34978)"><g><path d="M 6.382812 -35.738281 C 8.679688 -34.460938 10.976562 -33.695312 13.273438 -33.695312 C 29.101562 -33.695312 45.949219 -59.734375 54.117188 -74.796875 C 54.375 -75.816406 54.628906 -76.582031 54.628906 -77.09375 C 54.628906 -78.878906 53.863281 -80.410156 52.078125 -81.6875 C 51.054688 -81.945312 50.289062 -82.199219 49.777344 -82.199219 C 47.738281 -82.199219 46.203125 -81.433594 44.929688 -79.644531 C 34.460938 -61.011719 21.1875 -44.164062 13.53125 -44.164062 C 12.765625 -44.164062 12.253906 -44.417969 11.488281 -44.671875 C 9.699219 -45.695312 8.933594 -48.246094 8.933594 -52.585938 C 8.933594 -65.605469 16.847656 -90.367188 18.890625 -97.003906 C 19.65625 -99.8125 18.125 -102.621094 15.316406 -103.386719 C 12.507812 -104.152344 9.699219 -102.367188 8.933594 -99.558594 C 4.851562 -84.496094 -1.019531 -66.628906 -1.019531 -53.097656 C -1.019531 -45.183594 1.019531 -39.058594 6.382812 -35.738281 Z M 20.675781 -117.683594 C 23.230469 -117.683594 24.761719 -118.957031 25.527344 -121.257812 L 27.824219 -128.914062 C 28.847656 -132.742188 25.78125 -135.296875 22.71875 -135.296875 C 20.675781 -135.296875 18.636719 -134.273438 17.871094 -131.46875 L 16.847656 -127.894531 L 15.828125 -124.0625 C 15.0625 -121 16.847656 -117.683594 20.675781 -117.683594 Z M 20.675781 -117.683594 "/></g></g></g></svg>